<svg width="38" height="37" viewBox="0 0 38 37" fill="none" xmlns="http://www.w3.org/2000/svg">
<path d="M3.91468 37H33.48C34.5266 37 35.5303 36.5842 36.2704 35.8442C37.0104 35.1041 37.4262 34.1004 37.4262 33.0538V10.8364C37.4266 9.83546 37.1098 8.86014 36.5213 8.05046C35.9329 7.24079 35.103 6.6384 34.1508 6.32978L29.7468 4.90913L26.5898 0.347269V0.284129L26.5109 0.205204C26.4661 0.163952 26.4156 0.129394 26.3609 0.102602L26.2741 0.0552472C26.1861 0.0204145 26.0925 0.00170087 25.9979 0H11.4283C11.3337 0.00170087 11.2401 0.0204145 11.1521 0.0552472L11.0653 0.102602C11.0106 0.129394 10.9601 0.163952 10.9153 0.205204L10.8364 0.284129L10.8048 0.347269L7.64782 4.91702L3.27538 6.33767C2.32322 6.64629 1.49333 7.24868 0.904859 8.05836C0.316391 8.86803 -0.000388268 9.84335 3.57147e-07 10.8443V33.0538C-3.29606e-05 34.0949 0.411394 35.0939 1.14464 35.8331C1.8779 36.5722 2.87355 36.9917 3.91468 37ZM35.8477 10.8364V33.0538C35.8477 33.6817 35.5982 34.284 35.1542 34.728C34.7102 35.172 34.1079 35.4215 33.48 35.4215H19.4866V16.298L23.7485 19.2892C23.8858 19.3936 24.0535 19.4501 24.226 19.4501C24.3985 19.4501 24.5662 19.3936 24.7035 19.2892C30.2756 14.7274 30.5045 9.23422 30.2282 6.7323L33.693 7.82935C34.3229 8.04022 34.8701 8.44434 35.257 8.98422C35.6438 9.5241 35.8505 10.1722 35.8477 10.8364ZM8.84748 5.87201L10.8048 3.10175C11.3768 7.69755 13.7324 11.8843 17.3635 14.759L13.2357 17.7108C7.64783 12.7543 8.64228 6.85858 8.84748 5.87201ZM12.2334 1.54693H25.1613C25.0338 3.93021 24.3897 6.25729 23.2735 8.36692C22.1574 10.4765 20.5959 12.3183 18.6973 13.7645C16.8057 12.3188 15.2488 10.4814 14.1332 8.37814C13.0175 6.27489 12.3695 3.95543 12.2334 1.5785V1.54693ZM24.1589 17.7108L20.0469 14.7905C23.6793 11.9056 26.0298 7.70648 26.5898 3.10175L28.5393 5.87201C28.9193 8.05637 28.7142 10.3024 27.9448 12.3818C27.1755 14.4612 25.8692 16.2998 24.1589 17.7108ZM1.54693 10.8364C1.54411 10.1722 1.75083 9.5241 2.13768 8.98422C2.52452 8.44434 3.07178 8.04022 3.70158 7.82935L7.11114 6.7244C6.86647 9.22632 7.11114 14.7195 12.6359 19.2814C12.7732 19.3857 12.9409 19.4422 13.1134 19.4422C13.2858 19.4422 13.4536 19.3857 13.5909 19.2814L17.9081 16.298V35.4215H3.91468C3.28671 35.4215 2.68446 35.172 2.24043 34.728C1.79639 34.284 1.54693 33.6817 1.54693 33.0538V10.8364Z" fill="white"/>
</svg>
