<svg width="37" height="37" viewBox="0 0 37 37" fill="none" xmlns="http://www.w3.org/2000/svg">
<path d="M33.1907 34.5346V34.5736C33.1806 35.0811 32.9746 35.5657 32.615 35.9254C32.2461 36.2942 31.7459 36.5015 31.2242 36.5015C30.7026 36.5015 30.2023 36.2942 29.8335 35.9254C29.4646 35.5565 29.2574 35.0563 29.2574 34.5346V21.6449V21.5954L29.2477 21.5469L28.9939 20.2776C28.9939 20.2775 28.9939 20.2775 28.9938 20.2775C28.3575 17.0916 28.0329 13.8513 28.0245 10.6024L28.0243 10.5068L27.9888 10.418L26.0771 5.63879C26.077 5.63852 26.0769 5.63824 26.0768 5.63797C25.924 5.2514 25.908 4.82422 26.0313 4.42725C26.1546 4.03023 26.4099 3.6873 26.7548 3.4553L26.7979 3.42659L26.7985 3.42621C28.108 2.54986 29.6483 2.08203 31.224 2.08203C32.7998 2.08203 34.3401 2.54986 35.6496 3.42621L35.6505 3.42681L35.6927 3.45488C35.6929 3.45505 35.6932 3.45523 35.6935 3.45541C36.0383 3.68742 36.2935 4.03031 36.4168 4.42726C36.5402 4.82427 36.5241 5.2515 36.3713 5.6381C36.3712 5.63834 36.3711 5.63858 36.371 5.63882L34.4593 10.4179L34.4238 10.5067L34.4235 10.6024C34.4152 13.8512 34.0906 17.0915 33.4542 20.2775C33.4542 20.2775 33.4542 20.2775 33.4542 20.2776L33.2004 21.5468L33.1907 21.5953V21.6448V34.5346ZM28.0936 10.0521L28.2193 10.3664H28.5578H29.8552H30.4652L30.3455 9.76826L29.8761 7.42239L29.8761 7.42239L29.8756 7.41965C29.8724 7.40458 29.8724 7.38905 29.8753 7.37395C29.8782 7.35885 29.8841 7.34447 29.8926 7.33165C29.9011 7.31882 29.912 7.30781 29.9248 7.29923C29.9375 7.29065 29.9519 7.28469 29.967 7.28167C29.9821 7.27865 29.9976 7.27865 30.0127 7.28165C30.0278 7.28466 30.0421 7.29062 30.0549 7.29919C30.0676 7.30775 30.0786 7.31876 30.0871 7.33158C30.0956 7.3444 30.1015 7.35877 30.1044 7.37387L30.1044 7.37387L30.105 7.37669L30.6228 9.96447L30.7032 10.3664H31.1131H31.3353H31.7453L31.8256 9.96436L32.3428 7.37658L32.3428 7.37658L32.3433 7.37387C32.3463 7.35877 32.3522 7.3444 32.3607 7.33158C32.3692 7.31876 32.3801 7.30775 32.3929 7.29919C32.4057 7.29062 32.42 7.28466 32.4351 7.28165C32.4502 7.27865 32.4657 7.27865 32.4808 7.28167C32.4959 7.28468 32.5102 7.29065 32.523 7.29923C32.5358 7.30781 32.5467 7.31883 32.5552 7.33165C32.5637 7.34447 32.5696 7.35885 32.5725 7.37395C32.5754 7.38905 32.5753 7.40458 32.5722 7.41965L32.5722 7.41965L32.5716 7.42244L32.1025 9.76831L31.9829 10.3664H32.5928H33.8899H34.2284L34.3541 10.0521L36.155 5.55012L36.1558 5.5483C36.2887 5.21216 36.3027 4.84066 36.1954 4.49547C36.0881 4.15028 35.866 3.85215 35.566 3.65058L35.5644 3.64948L35.5214 3.62086C35.5213 3.6208 35.5212 3.62074 35.5211 3.62067C34.2495 2.76982 32.7539 2.31561 31.2238 2.31561C29.6936 2.31561 28.1979 2.76989 26.9262 3.62086L26.883 3.64971L26.883 3.64971L26.8817 3.6506C26.5816 3.85221 26.3596 4.15037 26.2523 4.49558C26.1451 4.84079 26.1592 5.21229 26.2922 5.54841L26.2922 5.54841L26.2929 5.55009L28.0936 10.0521ZM29.4904 21.7005V22.2005V34.5346C29.4904 34.9944 29.6731 35.4353 29.9981 35.7603C30.3232 36.0854 30.7641 36.2681 31.2238 36.2681C31.6836 36.2681 32.1245 36.0854 32.4496 35.7603C32.7746 35.4353 32.9573 34.9944 32.9573 34.5346V22.2005V21.7005H32.4573H29.9904H29.4904ZM32.5687 21.4671H32.9788L33.0591 21.0649L33.2253 20.2314C33.4989 18.8603 33.7145 17.4797 33.8722 16.0898L33.9353 15.5334H33.3754H31.8406C31.8096 15.5334 31.7799 15.5211 31.758 15.4993C31.7361 15.4774 31.7238 15.4477 31.7238 15.4167C31.7238 15.3858 31.7361 15.3561 31.758 15.3342C31.7799 15.3123 31.8096 15.3 31.8406 15.3H33.4993H33.9569L33.9974 14.8442C34.1079 13.5988 34.1709 12.3528 34.1865 11.106L34.1928 10.5998H33.6865H28.7606H28.2541L28.2606 11.1062C28.2998 14.1711 28.6218 17.2258 29.2223 20.2316L29.2223 20.2316L29.389 21.0651L29.4694 21.4671H29.8793H32.5687Z" stroke="white"/>
<path d="M25.7857 26.402H25.2857H22.8189H22.3189V25.902V19.571C22.3188 19.4675 22.3434 19.3655 22.3904 19.2733C22.4376 19.1809 22.5061 19.101 22.5902 19.0403C22.6744 18.9796 22.7717 18.9398 22.8743 18.9241C22.9768 18.9085 23.0816 18.9174 23.1799 18.9502C23.18 18.9502 23.18 18.9502 23.1801 18.9502L24.3891 19.3532C24.3892 19.3533 24.3893 19.3533 24.3894 19.3533C24.7962 19.4886 25.1501 19.7486 25.4008 20.0964C25.6515 20.4443 25.7862 20.8624 25.7857 21.2912M25.7857 26.402V21.2912M25.7857 26.402V25.902M25.7857 26.402V25.902M25.7857 21.2912V25.902M25.7857 21.2912V25.902M24.4635 19.1322L24.4638 19.1323C24.9169 19.2829 25.3111 19.5725 25.5903 19.9599C25.8695 20.3472 26.0195 20.8127 26.0191 21.2903V21.2907V25.902V26.402H26.5191C26.5501 26.402 26.5798 26.4143 26.6016 26.4361C26.6235 26.458 26.6358 26.4877 26.6358 26.5187V36.386C26.6358 36.4169 26.6235 36.4466 26.6016 36.4685C26.5798 36.4904 26.5501 36.5027 26.5191 36.5027H21.5855C21.5545 36.5027 21.5248 36.4904 21.5029 36.4685C21.481 36.4466 21.4688 36.4169 21.4688 36.386V26.5187C21.4688 26.4877 21.481 26.458 21.5029 26.4361C21.5248 26.4143 21.5545 26.402 21.5855 26.402H22.0855V25.902L22.0855 19.5711C22.0855 19.571 22.0855 19.571 22.0855 19.571C22.0855 19.4304 22.1189 19.2918 22.183 19.1667C22.2471 19.0415 22.34 18.9333 22.4541 18.8511C22.5682 18.7689 22.7002 18.7149 22.8392 18.6937C22.9782 18.6725 23.1203 18.6847 23.2537 18.7291L23.2538 18.7292L24.4635 19.1322ZM25.9024 36.2693H26.4024V35.7693V29.6022V29.1022H25.9024H22.2022H21.7022V29.6022V35.7693V36.2693H22.2022H25.9024ZM25.9024 28.8688H26.4024V28.3688V27.1354V26.6354H25.9024H22.2022H21.7022V27.1354V28.3688V28.8688H22.2022H25.9024Z" stroke="white"/>
<path d="M15.0318 27.1366H15.301C15.301 27.1363 15.301 27.136 15.301 27.1357C15.3009 26.9548 15.2914 26.7774 15.2746 26.6037L15.1547 25.3617L14.3838 26.3428L11.0955 30.528L10.4599 31.3369L15.1701 26.9607L14.7769 26.6518C14.7923 26.8114 14.801 26.973 14.801 27.1366C14.8012 27.2386 14.7982 27.3403 14.792 27.4418L15.0318 27.1366ZM15.0318 27.1366L15.0321 27.1362L14.8012 27.1366H15.0318ZM17.2169 30.6227L16.8782 31.3369H17.6686H19.1179C19.1489 31.3369 19.1785 31.3492 19.2004 31.3711C19.2223 31.393 19.2346 31.4226 19.2346 31.4536V31.7614C19.2332 33.0188 18.7331 34.2242 17.844 35.1133C16.9549 36.0024 15.7494 36.5025 14.492 36.504H5.24257C3.9852 36.5025 2.77973 36.0024 1.89064 35.1133C1.00161 34.2243 0.501496 33.0189 0.5 31.7617V31.4536C0.5 31.4226 0.512296 31.393 0.534183 31.3711C0.556069 31.3492 0.585753 31.3369 0.616707 31.3369H2.06597H2.85641L2.51775 30.6227C1.9299 29.3829 1.66522 28.0145 1.74836 26.645C1.83149 25.2754 2.25974 23.9491 2.99323 22.7895C3.72673 21.63 4.74165 20.6748 5.94354 20.0129C7.14542 19.351 8.49522 19.0039 9.86731 19.0039C11.2394 19.0039 12.5892 19.351 13.7911 20.0129C14.993 20.6748 16.0079 21.63 16.7414 22.7895C17.4749 23.9491 17.9031 25.2754 17.9863 26.645C18.0694 28.0145 17.8047 29.3829 17.2169 30.6227ZM9.86736 19.2362H9.86726C8.48049 19.2363 7.11817 19.6014 5.91721 20.2948C4.71625 20.9883 3.71895 21.9856 3.02552 23.1865C2.33209 24.3875 1.96697 25.7498 1.96683 27.1366C1.96669 28.5233 2.33155 29.8857 3.02474 31.0868L3.16907 31.3369H3.4578H4.93365H5.93357L5.33367 30.5369C4.70217 29.6948 4.31764 28.6935 4.22316 27.6451C4.12868 26.5968 4.32799 25.5428 4.79876 24.6014C5.26952 23.6599 5.99314 22.8681 6.88855 22.3148C7.78395 21.7614 8.81575 21.4683 9.86835 21.4683C10.9209 21.4683 11.9528 21.7614 12.8482 22.3148C13.7436 22.8681 14.4672 23.6599 14.9379 24.6014C15.4087 25.5428 15.608 26.5968 15.5135 27.6451C15.4191 28.6935 15.0345 29.6948 14.403 30.5369L13.8031 31.3369H14.803H16.2768H16.5655L16.7099 31.0868C17.4031 29.8857 17.7679 28.5233 17.7678 27.1366C17.7677 25.7498 17.4025 24.3875 16.7091 23.1865C16.0157 21.9856 15.0184 20.9883 13.8174 20.2948C12.6164 19.6014 11.2541 19.2363 9.86736 19.2362ZM10.8214 21.7885L10.5185 21.7347L10.334 21.9808L5.0486 29.028L4.86381 29.2744L5.00073 29.5503C5.21786 29.9878 5.49298 30.394 5.81866 30.758L6.21615 31.2023L6.58443 30.7335L12.5856 23.0956L12.9535 22.6274L12.4287 22.3461C11.9258 22.0764 11.3833 21.8882 10.8214 21.7885ZM4.49718 27.9583L4.67852 29.1325L5.39132 28.182L9.61746 22.5468L10.3303 21.5964L9.15233 21.7511C8.4357 21.8452 7.74509 22.0816 7.12109 22.4464C6.49708 22.8111 5.95224 23.2969 5.51858 23.8751C5.08492 24.4534 4.77118 25.1125 4.59578 25.8137C4.42037 26.5148 4.38685 27.244 4.49718 27.9583ZM13.5372 23.1333L13.1395 22.7685L12.8061 23.1929L7.04278 30.528L6.40721 31.3369H7.43594H9.93484H10.2393L10.3596 31.104L10.3833 31.0732C10.4162 31.0307 10.4642 30.9689 10.5256 30.8901C10.6481 30.7328 10.8225 30.5097 11.0314 30.2426C11.4492 29.7086 12.0047 28.9997 12.5597 28.2917C13.1147 27.5837 13.6691 26.8768 14.0848 26.3469L14.5871 25.7068L14.7277 25.5276L14.7648 25.4803L14.7743 25.4682L14.7767 25.4652L14.7773 25.4644L14.7774 25.4642L14.3841 25.1555L14.8484 24.9698L14.8452 24.9618L14.8417 24.9539C14.5375 24.2633 14.0933 23.6434 13.5372 23.1333ZM10.3405 31.129L10.3405 31.129L10.3405 31.129ZM6.74447 32.2372L6.9806 31.5703H6.27314H1.24513H0.704405L0.74666 32.1094C0.835369 33.2411 1.34723 34.2978 2.18024 35.069C3.01324 35.8402 4.10624 36.2692 5.24141 36.2705H5.24201H14.4926H14.4932C15.6284 36.2692 16.7214 35.8402 17.5544 35.069C18.3874 34.2978 18.8992 33.2411 18.988 32.1094L19.0302 31.5703H18.4895H13.4642H13.4118L13.3606 31.5812L13.358 31.5817L12.8 31.6999L12.9903 32.2376C13.0623 32.4412 13.0844 32.6591 13.0548 32.873C13.0251 33.0869 12.9445 33.2906 12.8199 33.4669C12.6952 33.6432 12.53 33.787 12.3382 33.8862C12.1464 33.9855 11.9336 34.0372 11.7176 34.0371H11.7174H8.01719H8.01702C7.80104 34.0372 7.58819 33.9854 7.39637 33.8862C7.20454 33.7869 7.03935 33.643 6.91466 33.4667C6.78997 33.2903 6.70944 33.0866 6.67982 32.8727C6.65021 32.6587 6.67238 32.4408 6.74447 32.2372ZM11.7174 31.5703H8.01719C7.72102 31.5703 7.43698 31.688 7.22756 31.8974C7.01813 32.1068 6.90048 32.3908 6.90048 32.687C6.90048 32.9832 7.01813 33.2672 7.22756 33.4766C7.43698 33.6861 7.72102 33.8037 8.01719 33.8037H11.7174C12.0136 33.8037 12.2976 33.6861 12.5071 33.4766C12.7165 33.2672 12.8341 32.9832 12.8341 32.687C12.8341 32.3908 12.7165 32.1068 12.5071 31.8974C12.2976 31.688 12.0136 31.5703 11.7174 31.5703Z" stroke="white"/>
<path d="M23.162 9.14755C23.2581 9.08351 23.3343 8.99379 23.3819 8.8886C23.4294 8.78342 23.4465 8.66698 23.4312 8.55255C23.4159 8.43812 23.3687 8.33029 23.2952 8.24133C23.2216 8.15237 23.1245 8.08586 23.015 8.04935C22.5319 7.88706 22.0931 7.6151 21.7328 7.25479C21.3724 6.89448 21.1005 6.45561 20.9382 5.97259C20.8973 5.84977 20.8188 5.74293 20.7137 5.66723C20.6087 5.59152 20.4826 5.55078 20.3531 5.55078C20.2236 5.55078 20.0975 5.59152 19.9925 5.66723C19.8874 5.74293 19.8089 5.84977 19.768 5.97259C19.6057 6.45561 19.3338 6.89448 18.9734 7.25479C18.6131 7.6151 18.1743 7.88706 17.6912 8.04935L23.162 9.14755ZM18.8101 9.39078L18.8098 9.39063L18.0442 8.88019V8.87996L17.8215 8.73152C17.8033 8.71941 17.7889 8.70243 17.7799 8.68252C17.7709 8.66261 17.7677 8.64058 17.7706 8.61893C17.7735 8.59727 17.7824 8.57686 17.7963 8.56003C17.8102 8.5432 17.8286 8.53061 17.8493 8.5237L17.8505 8.52331C18.4067 8.33643 18.9121 8.02326 19.327 7.60835C19.7419 7.19343 20.0551 6.68806 20.242 6.13184L20.2424 6.13061C20.2501 6.10736 20.265 6.08714 20.2849 6.07282C20.3047 6.05849 20.3286 6.05078 20.3531 6.05078C20.3776 6.05078 20.4015 6.05849 20.4214 6.07282C20.4412 6.08714 20.4561 6.10736 20.4638 6.13061L20.4642 6.13184C20.6511 6.68806 20.9643 7.19343 21.3792 7.60835C21.7941 8.02326 22.2995 8.33643 22.8557 8.52332L22.8569 8.5237C22.8776 8.53061 22.896 8.5432 22.9099 8.56003C22.9238 8.57686 22.9327 8.59727 22.9356 8.61893C22.9385 8.64058 22.9353 8.66262 22.9263 8.68252C22.9173 8.70242 22.9029 8.7194 22.8847 8.73152C22.8847 8.73152 22.8847 8.73152 22.8847 8.73152L21.8964 9.3904L21.8961 9.39057C21.3485 9.75614 20.9055 10.2581 20.611 10.847L20.6109 10.8471L20.4575 11.154C20.4575 11.154 20.4575 11.154 20.4575 11.154C20.4478 11.1734 20.4329 11.1897 20.4145 11.2011C20.396 11.2125 20.3748 11.2185 20.3531 11.2185C20.3314 11.2185 20.3102 11.2125 20.2918 11.2011C20.2733 11.1897 20.2584 11.1734 20.2487 11.154C20.2487 11.154 20.2487 11.154 20.2487 11.154L20.0953 10.8471L20.0952 10.8469C19.8006 10.2582 19.3577 9.75628 18.8101 9.39078ZM20.7623 7.2348L20.3532 6.65186L19.9439 7.23476C19.6486 7.65536 19.2761 8.0161 18.8463 8.29783L18.2138 8.71238L18.843 9.13198L18.9392 9.19616C18.9392 9.19617 18.9392 9.19618 18.9392 9.1962C19.33 9.45692 19.6721 9.7841 19.9499 10.1629L20.353 10.7125L20.7562 10.163C21.0341 9.78424 21.3762 9.45712 21.767 9.19643C21.767 9.19642 21.767 9.19641 21.767 9.1964L21.8633 9.13221L22.4923 8.71265L21.8599 8.29808C21.4301 8.0163 21.0576 7.65549 20.7623 7.2348Z" stroke="white"/>
<path d="M12.9828 9.67181C13.0238 9.54899 13.1023 9.44215 13.2073 9.36645C13.3123 9.29074 13.4385 9.25 13.5679 9.25C13.6974 9.25 13.8236 9.29074 13.9286 9.36645C14.0336 9.44215 14.1121 9.54899 14.153 9.67181H12.9828ZM12.9828 9.67181C12.8206 10.1548 12.5486 10.5937 12.1883 10.954C11.828 11.3143 11.3891 11.5863 10.9061 11.7486L12.9828 9.67181ZM16.0706 12.2225L16.0787 12.2253C16.0966 12.2325 16.1124 12.2441 16.1247 12.259C16.1387 12.2759 16.1476 12.2963 16.1505 12.3179C16.1534 12.3396 16.1501 12.3616 16.1411 12.3815C16.1321 12.4014 16.1177 12.4184 16.0995 12.4305C16.0995 12.4305 16.0995 12.4305 16.0995 12.4305L15.1112 13.0894L15.1109 13.0896C14.5633 13.4551 14.1204 13.9571 13.8258 14.546L13.8258 14.5461L13.6723 14.853C13.6723 14.853 13.6723 14.853 13.6723 14.853C13.6626 14.8724 13.6477 14.8887 13.6293 14.9C13.6109 14.9114 13.5896 14.9175 13.5679 14.9175C13.5463 14.9175 13.525 14.9114 13.5066 14.9C13.4882 14.8887 13.4733 14.8724 13.4636 14.853C13.4636 14.853 13.4636 14.853 13.4636 14.853L13.3101 14.5461L13.31 14.5459C13.0155 13.9571 12.5725 13.4553 12.0249 13.0898L12.0247 13.0896L11.0363 12.4307C11.0363 12.4307 11.0363 12.4307 11.0363 12.4307C11.0182 12.4186 11.0038 12.4016 10.9947 12.3817C10.9857 12.3618 10.9825 12.3398 10.9854 12.3181C10.9883 12.2965 10.9972 12.2761 11.0112 12.2592C11.0251 12.2424 11.0435 12.2298 11.0642 12.2229L11.0653 12.2225C11.6215 12.0357 12.1269 11.7225 12.5418 11.3076C12.9568 10.8927 13.2699 10.3873 13.4568 9.83106L13.4572 9.82982C13.465 9.80658 13.4798 9.78636 13.4997 9.77204C13.5196 9.75771 13.5434 9.75 13.5679 9.75C13.5924 9.75 13.6163 9.75771 13.6362 9.77204C13.6561 9.78636 13.6709 9.80658 13.6787 9.82983L13.6791 9.83105C13.866 10.3873 14.1791 10.8927 14.594 11.3076C15.009 11.7225 15.5143 12.0357 16.0706 12.2225ZM12.0578 12.831L12.154 12.8951C12.154 12.8952 12.1541 12.8952 12.1541 12.8952C12.5449 13.1559 12.8869 13.4831 13.1648 13.8619L13.5679 14.4114L13.9711 13.862C14.249 13.4832 14.591 13.1561 14.9818 12.8954C14.9818 12.8954 14.9818 12.8954 14.9819 12.8954L15.0781 12.8312L15.7072 12.4116L15.0748 11.9971C14.6449 11.7153 14.2725 11.3545 13.9772 10.9338L13.568 10.3508L13.1587 10.9337C12.8634 11.3544 12.491 11.7151 12.0611 11.9968L11.4287 12.4114L12.0578 12.831Z" stroke="white"/>
<path d="M17.576 3.83938L17.5758 3.83956C17.0281 4.20513 16.5852 4.7071 16.2907 5.29599L16.2906 5.29606L16.1372 5.60297C16.1372 5.60299 16.1372 5.603 16.1371 5.60302C16.1274 5.62238 16.1126 5.63866 16.0941 5.65004C16.0757 5.66144 16.0545 5.66747 16.0328 5.66747C16.0111 5.66747 15.9899 5.66144 15.9714 5.65004C15.953 5.63866 15.9381 5.62238 15.9284 5.60302C15.9284 5.603 15.9284 5.60299 15.9284 5.60297L15.775 5.29606L15.7749 5.29599C15.4804 4.7071 15.0374 4.20513 14.4898 3.83956L14.4895 3.83934L13.5012 3.18074C13.5012 3.18073 13.5011 3.18071 13.5011 3.1807C13.483 3.16858 13.4686 3.15162 13.4596 3.13174C13.4506 3.11183 13.4474 3.0898 13.4503 3.06814C13.4532 3.04649 13.4621 3.02608 13.476 3.00925C13.4899 2.99241 13.5083 2.97983 13.529 2.97292L13.5302 2.97253C14.0864 2.78565 14.5918 2.47248 15.0067 2.05757C15.4216 1.64265 15.7348 1.13728 15.9217 0.581055L15.9221 0.579824C15.9298 0.556582 15.9447 0.536364 15.9645 0.522037C15.9844 0.507709 16.0083 0.5 16.0328 0.5C16.0573 0.5 16.0812 0.507709 16.101 0.522037C16.1209 0.536364 16.1358 0.556582 16.1435 0.579825L16.1439 0.581054C16.3308 1.13728 16.644 1.64265 17.0589 2.05757C17.4738 2.47248 17.9792 2.78565 18.5354 2.97254L18.5364 2.97286C18.5571 2.97977 18.5754 2.99236 18.5894 3.00919C18.6033 3.02602 18.6122 3.04642 18.6151 3.06806C18.618 3.08971 18.6148 3.11173 18.6058 3.13164C18.5968 3.15154 18.5824 3.16851 18.5642 3.18064L17.576 3.83938ZM15.6296 4.61188L16.0327 5.16144L16.4359 4.61195C16.7138 4.23323 17.0559 3.90611 17.4467 3.64542C17.4467 3.64541 17.4467 3.6454 17.4467 3.64539L17.5429 3.5812L18.172 3.16164L17.5396 2.74707C17.1098 2.46529 16.7373 2.10447 16.442 1.68379L16.0328 1.10085L15.6236 1.68374C15.3283 2.10435 14.9558 2.46509 14.526 2.74682L13.8935 3.16137L14.5226 3.58097L14.6189 3.64514C14.6189 3.64516 14.6189 3.64517 14.6189 3.64519C15.0097 3.90591 15.3518 4.23309 15.6296 4.61188Z" stroke="white"/>
</svg>
