<svg width="37" height="37" viewBox="0 0 37 37" fill="none" xmlns="http://www.w3.org/2000/svg">
<path d="M15.671 11.2768C16.6432 11.2197 17.6096 11.0883 18.5617 10.8837C19.1838 10.43 19.6903 9.83608 20.0398 9.15C20.3894 8.46393 20.5723 7.70508 20.5735 6.93509C20.5735 4.3104 17.9951 1.73196 15.3704 1.73196C13.9598 1.73196 10.4506 0.506336 9.21338 0.0380543C9.13274 0.00725461 9.04623 -0.00509711 8.9602 0.00190571C8.87416 0.00890854 8.79079 0.0350882 8.71619 0.078523C8.64172 0.122695 8.57812 0.183032 8.53009 0.255078C8.48206 0.327124 8.45082 0.409039 8.43869 0.494773C8.40401 0.737586 7.61197 6.54196 10.8321 9.55399C12.1587 10.7373 13.8951 11.3555 15.671 11.2768ZM9.51979 1.3793C10.8957 1.87649 13.8731 2.88821 15.3704 2.88821C16.4176 2.96689 17.4019 3.41852 18.1444 4.16108C18.887 4.90365 19.3386 5.88789 19.4173 6.93509C19.4191 7.43035 19.3225 7.92104 19.1329 8.37859C18.9433 8.83614 18.6646 9.25141 18.3131 9.60024L13.4857 4.23524C13.383 4.12101 13.2391 4.05227 13.0857 4.04414C12.9323 4.03601 12.7819 4.08915 12.6677 4.19188C12.5534 4.29461 12.4847 4.43851 12.4766 4.59193C12.4684 4.74534 12.5216 4.8957 12.6243 5.00993L17.1279 10.0107C14.746 10.3287 12.896 9.90087 11.6242 8.70993C9.45619 6.68649 9.42151 2.94602 9.51979 1.3793Z" fill="white"/>
<path d="M20.0448 14.3536C20.409 15.9087 21.5016 16.8742 22.8891 16.8742C25.3924 16.8742 28.0923 15.6081 28.0923 12.8273C28.1663 11.3114 28.3596 9.80357 28.6704 8.31796C28.6987 8.17892 28.6748 8.03434 28.6034 7.91174C28.532 7.78914 28.4179 7.69709 28.283 7.65311C28.0865 7.58952 26.2191 7.07499 22.6405 8.84405C21.6548 9.34074 20.8638 10.1531 20.3933 11.1515C19.9229 12.15 19.8002 13.2773 20.0448 14.3536ZM23.1262 9.8789C24.3936 9.16064 25.8107 8.74698 27.2655 8.67061H27.4043C27.1418 10.0343 26.9853 11.4163 26.936 12.8042C26.936 14.793 24.8374 15.6948 22.8891 15.6948C22.7506 15.6961 22.6125 15.6786 22.4787 15.6428L25.0918 11.9833C25.1802 11.8589 25.2158 11.7046 25.1909 11.5541C25.1659 11.4036 25.0825 11.269 24.9588 11.1797C24.897 11.135 24.827 11.103 24.7528 11.0855C24.6786 11.0681 24.6017 11.0654 24.5265 11.0778C24.4512 11.0901 24.3792 11.1172 24.3145 11.1576C24.2498 11.1979 24.1937 11.2506 24.1494 11.3126L21.5537 14.9548C21.3759 14.6817 21.2449 14.3808 21.1663 14.0645C20.9861 13.2484 21.0806 12.3956 21.435 11.6387C21.7894 10.8818 22.3839 10.2631 23.1262 9.8789Z" fill="white"/>
<path d="M31.2188 23.1216C31.2188 21.7803 29.2531 20.8958 24.9461 20.2656C24.8702 20.2542 24.7928 20.2579 24.7183 20.2764C24.6438 20.295 24.5736 20.328 24.5119 20.3736C24.4502 20.4193 24.398 20.4766 24.3584 20.5424C24.3189 20.6082 24.2926 20.6811 24.2812 20.757C24.2699 20.833 24.2735 20.9104 24.2921 20.9849C24.3106 21.0594 24.3436 21.1295 24.3893 21.1912C24.4349 21.253 24.4922 21.3051 24.558 21.3447C24.6238 21.3843 24.6967 21.4105 24.7727 21.4219C29.9758 22.1908 30.0625 23.1562 30.0625 23.1562C30.0625 23.9425 25.9694 25.4688 18.5 25.4688C11.0306 25.4688 6.9375 23.9425 6.9375 23.1562C6.9375 22.37 11.0191 20.8438 18.5 20.8438C18.6533 20.8438 18.8004 20.7828 18.9088 20.6744C19.0172 20.566 19.0781 20.419 19.0781 20.2656C19.0781 20.1123 19.0172 19.9652 18.9088 19.8568C18.8004 19.7484 18.6533 19.6875 18.5 19.6875C12.395 19.6875 5.83328 20.7686 5.78125 23.1562V23.1909C5.78125 23.902 6.22641 36.9966 18.5 36.9966C30.7736 36.9966 31.2188 23.902 31.2188 23.1562V23.1216ZM18.5 26.5903C22.9805 26.5903 27.7095 26.0122 29.9295 24.7634C29.8717 25.1681 29.7966 25.6364 29.6925 26.1336C29.2184 26.3764 26.2237 27.7466 18.5 27.7466C10.7763 27.7466 7.79313 26.3764 7.3075 26.1336C7.20344 25.6364 7.12828 25.1681 7.07047 24.7634C9.29047 26.0122 14.0195 26.5903 18.5 26.5903ZM18.5 35.8403C13.7247 35.8403 10.3311 33.7302 8.4175 29.5619C8.11932 28.9034 7.86628 28.2255 7.66016 27.5327C9.16328 28.0703 12.4586 28.9028 18.5 28.9028C24.5414 28.9028 27.8367 28.0703 29.3398 27.5327C29.1337 28.2255 28.8807 28.9034 28.5825 29.5619C26.6689 33.7302 23.2753 35.8403 18.5 35.8403Z" fill="white"/>
<path d="M33.5308 12.7148C31.6172 12.7148 30.0621 14.7903 30.0621 17.3398C30.034 18.0956 30.1752 18.848 30.4753 19.5422C30.7754 20.2364 31.2267 20.8547 31.7965 21.352V35.2617C31.7965 35.7217 31.9792 36.1628 32.3044 36.4881C32.6297 36.8134 33.0709 36.9961 33.5308 36.9961C33.9908 36.9961 34.432 36.8134 34.7572 36.4881C35.0825 36.1628 35.2652 35.7217 35.2652 35.2617V21.352C35.8349 20.8547 36.2863 20.2364 36.5864 19.5422C36.8865 18.848 37.0276 18.0956 36.9996 17.3398C36.9996 14.7903 35.4444 12.7148 33.5308 12.7148ZM34.3865 20.5542C34.3021 20.6056 34.2323 20.6777 34.1837 20.7638C34.1351 20.8498 34.1094 20.9468 34.109 21.0456V35.2617C34.109 35.415 34.0481 35.5621 33.9396 35.6705C33.8312 35.7789 33.6842 35.8398 33.5308 35.8398C33.3775 35.8398 33.2305 35.7789 33.122 35.6705C33.0136 35.5621 32.9527 35.415 32.9527 35.2617V21.0456C32.9523 20.9468 32.9266 20.8498 32.878 20.7638C32.8294 20.6777 32.7596 20.6056 32.6752 20.5542C31.7965 20.0108 31.2183 18.7505 31.2183 17.3398C31.2183 15.4609 32.2763 13.8711 33.5308 13.8711C34.7854 13.8711 35.8433 15.4609 35.8433 17.3398C35.8433 18.7505 35.2652 20.0108 34.3865 20.5542Z" fill="white"/>
<path d="M6.9375 19.0742V13.293C6.9375 13.1396 6.87659 12.9926 6.76817 12.8842C6.65975 12.7758 6.5127 12.7148 6.35938 12.7148C6.20605 12.7148 6.059 12.7758 5.95058 12.8842C5.84216 12.9926 5.78125 13.1396 5.78125 13.293V16.7617H4.04688V13.293C4.04688 13.1396 3.98597 12.9926 3.87755 12.8842C3.76913 12.7758 3.62208 12.7148 3.46875 12.7148C3.31542 12.7148 3.16837 12.7758 3.05995 12.8842C2.95153 12.9926 2.89062 13.1396 2.89062 13.293V16.7617H1.15625V13.293C1.15625 13.1396 1.09534 12.9926 0.986921 12.8842C0.878502 12.7758 0.731453 12.7148 0.578125 12.7148C0.424797 12.7148 0.277748 12.7758 0.169329 12.8842C0.0609094 12.9926 0 13.1396 0 13.293L0 19.0742C0.000382186 19.5866 0.17092 20.0843 0.484836 20.4893C0.798752 20.8942 1.23827 21.1835 1.73438 21.3116V35.2617C1.73438 35.7217 1.9171 36.1628 2.24236 36.4881C2.56762 36.8134 3.00877 36.9961 3.46875 36.9961C3.92873 36.9961 4.36988 36.8134 4.69514 36.4881C5.0204 36.1628 5.20312 35.7217 5.20312 35.2617V21.3116C5.69923 21.1835 6.13875 20.8942 6.45266 20.4893C6.76658 20.0843 6.93712 19.5866 6.9375 19.0742ZM5.78125 19.0742C5.78125 19.3809 5.65943 19.675 5.44259 19.8918C5.22575 20.1087 4.93166 20.2305 4.625 20.2305C4.47167 20.2305 4.32462 20.2914 4.2162 20.3998C4.10778 20.5082 4.04688 20.6553 4.04688 20.8086V35.2617C4.04688 35.415 3.98597 35.5621 3.87755 35.6705C3.76913 35.7789 3.62208 35.8398 3.46875 35.8398C3.31542 35.8398 3.16837 35.7789 3.05995 35.6705C2.95153 35.5621 2.89062 35.415 2.89062 35.2617V20.8086C2.89062 20.6553 2.82972 20.5082 2.7213 20.3998C2.61288 20.2914 2.46583 20.2305 2.3125 20.2305C2.00584 20.2305 1.71175 20.1087 1.49491 19.8918C1.27807 19.675 1.15625 19.3809 1.15625 19.0742V17.918H5.78125V19.0742Z" fill="white"/>
<path d="M16.6259 13.8734L14.3134 14.4516C14.2388 14.468 14.1682 14.499 14.1057 14.5428C14.0432 14.5866 13.9899 14.6424 13.9491 14.7069C13.9082 14.7714 13.8806 14.8433 13.8677 14.9186C13.8548 14.9938 13.8569 15.0709 13.874 15.1453L14.4521 18.0359C14.4712 18.1261 14.5116 18.2105 14.5699 18.2819C14.6283 18.3533 14.7028 18.4097 14.7874 18.4464C14.863 18.4831 14.9463 18.501 15.0302 18.4984C15.134 18.4984 15.2358 18.4705 15.3251 18.4175L18.2157 16.6831C18.2827 16.643 18.3409 16.5897 18.3868 16.5264C18.4326 16.4632 18.4652 16.3913 18.4824 16.3151C18.4997 16.2389 18.5014 16.16 18.4874 16.0832C18.4733 16.0063 18.4438 15.9331 18.4007 15.868L17.2444 14.1336C17.1812 14.0313 17.0876 13.9512 16.9768 13.9046C16.8659 13.858 16.7432 13.8471 16.6259 13.8734ZM15.4349 17.0011L15.1285 15.4575L16.5102 15.1106L17.0884 16.0009L15.4349 17.0011Z" fill="white"/>
<path d="M15.0312 23.1211C15.0312 23.4641 15.133 23.7994 15.3235 24.0847C15.5141 24.3699 15.785 24.5922 16.1019 24.7234C16.4188 24.8547 16.7675 24.8891 17.104 24.8221C17.4404 24.7552 17.7495 24.59 17.992 24.3475C18.2346 24.1049 18.3998 23.7959 18.4667 23.4595C18.5336 23.123 18.4992 22.7743 18.368 22.4574C18.2367 22.1405 18.0144 21.8696 17.7292 21.679C17.444 21.4884 17.1087 21.3867 16.7656 21.3867C16.3056 21.3867 15.8645 21.5694 15.5392 21.8947C15.214 22.22 15.0313 22.6611 15.0312 23.1211ZM17.3438 23.1211C17.3438 23.2354 17.3098 23.3472 17.2463 23.4423C17.1828 23.5374 17.0925 23.6115 16.9869 23.6552C16.8812 23.699 16.765 23.7104 16.6528 23.6881C16.5407 23.6658 16.4377 23.6107 16.3568 23.5299C16.276 23.449 16.2209 23.346 16.1986 23.2339C16.1763 23.1217 16.1878 23.0055 16.2315 22.8999C16.2753 22.7942 16.3494 22.7039 16.4444 22.6404C16.5395 22.5769 16.6513 22.543 16.7656 22.543C16.919 22.543 17.066 22.6039 17.1744 22.7123C17.2828 22.8207 17.3438 22.9678 17.3438 23.1211Z" fill="white"/>
<path d="M22.5469 18.4961H20.2344C20.081 18.4961 19.934 18.557 19.8256 18.6654C19.7172 18.7738 19.6562 18.9209 19.6562 19.0742V22.543C19.6562 22.6963 19.7172 22.8433 19.8256 22.9518C19.934 23.0602 20.081 23.1211 20.2344 23.1211H20.3269L23.7956 22.543C23.8814 22.5287 23.9628 22.4954 24.0339 22.4453C24.1049 22.3953 24.1638 22.3298 24.2061 22.2539C24.2486 22.1789 24.2738 22.0953 24.2798 22.0092C24.2858 21.9232 24.2724 21.8369 24.2408 21.7567L23.0845 18.8661C23.0426 18.7574 22.9688 18.664 22.8729 18.598C22.777 18.5319 22.6633 18.4964 22.5469 18.4961ZM20.8125 21.8608V19.6523H22.1537L22.8995 21.5139L20.8125 21.8608Z" fill="white"/>
<path d="M14.6656 32.9928C12.1392 31.9696 11.5611 30.0039 11.5611 29.9172C11.5235 29.7685 11.4284 29.6408 11.2966 29.5622C11.1649 29.4836 11.0074 29.4605 10.8586 29.4981C10.7099 29.5356 10.5822 29.6308 10.5036 29.7625C10.425 29.8942 10.4019 30.0518 10.4395 30.2005C10.7392 31.093 11.2387 31.9054 11.9 32.5756C12.5612 33.2459 13.3667 33.7564 14.2551 34.0682C14.3178 34.093 14.3843 34.1067 14.4517 34.1086C14.5864 34.109 14.7169 34.0623 14.8209 33.9766C14.9248 33.8909 14.9955 33.7716 15.0209 33.6394C15.0462 33.5071 15.0246 33.3701 14.9597 33.2521C14.8949 33.134 14.7908 33.0423 14.6656 32.9928Z" fill="white"/>
<path d="M16.7656 33.5273H15.6094V34.6836H16.7656V33.5273Z" fill="white"/>
</svg>
