<svg width="43" height="37" viewBox="0 0 43 37" fill="none" xmlns="http://www.w3.org/2000/svg">
<path d="M8.0358 36.2935C8.0358 36.6836 7.71949 36.9999 7.32936 36.9999H0.706444C0.31631 36.9999 0 36.6836 0 36.2935C0 35.9033 0.31631 35.587 0.706444 35.587H7.32936C7.71949 35.587 8.0358 35.9033 8.0358 36.2935ZM16.4248 5.12163C19.1515 5.12163 21.3699 7.34004 21.3699 10.0667V11.303C21.3699 11.6931 21.0536 12.0095 20.6635 12.0095H12.1862C11.796 12.0095 11.4797 11.6931 11.4797 11.303V10.0667C11.4797 7.34004 13.6981 5.12163 16.4248 5.12163ZM12.8926 10.0667V10.5966H19.957V10.0667C19.957 8.11907 18.3725 6.53452 16.4248 6.53452C14.4772 6.53452 12.8926 8.11907 12.8926 10.0667ZM5.87231 34.1741C6.26245 34.1741 6.57929 33.8577 6.57876 33.4667L6.54167 5.8558C6.5384 3.40109 8.52386 1.4128 10.9788 1.4128H11.2814C12.6978 1.4128 13.996 2.06538 14.843 3.20319C15.076 3.51606 15.5185 3.58096 15.8315 3.34801C16.1445 3.11506 16.2093 2.67248 15.9763 2.35952C14.8764 0.882084 13.1212 0 11.2814 0H10.9788C7.74245 0 5.12446 2.62117 5.12878 5.85774L5.16587 33.4687C5.1664 33.8584 5.48253 34.1741 5.87231 34.1741ZM39.2076 24.5488V19.9426C39.2076 17.8568 37.5107 16.1598 35.4249 16.1598H16.1455C14.0597 16.1598 12.3628 17.8568 12.3628 19.9426V21.6348C12.3628 22.0249 12.6791 22.3412 13.0692 22.3412C13.4593 22.3412 13.7757 22.0249 13.7757 21.6348V19.9426C13.7757 18.6358 14.8388 17.5727 16.1455 17.5727H25.1671V25.5202C25.1671 25.9103 25.4834 26.2266 25.8735 26.2266C26.2636 26.2266 26.58 25.9103 26.58 25.5202V17.5727H35.4249C36.7316 17.5727 37.7948 18.6358 37.7948 19.9426V24.5676C36.2083 24.7385 34.969 26.0852 34.969 27.7164V28.346C34.969 28.7361 35.2853 29.0524 35.6754 29.0524C36.0656 29.0524 36.3819 28.7361 36.3819 28.346V27.7164C36.3819 26.7489 37.1689 25.9617 38.1364 25.9617H39.2192C40.1867 25.9617 40.9737 26.7489 40.9737 27.7164V33.8325C40.9737 34.8 40.1867 35.5871 39.2192 35.5871H36.3819C36.3819 30.9634 36.3853 31.248 36.3758 31.1718C36.4296 30.7405 36.0923 30.3771 35.6754 30.3771H19.8687C19.4786 30.3771 19.1623 30.6934 19.1623 31.0835C19.1623 31.4737 19.4786 31.79 19.8687 31.79H34.969V36.2936C34.969 36.6837 35.2853 37 35.6754 37H39.2192C40.9657 37 42.3866 35.5791 42.3866 33.8325V27.7164C42.3866 25.9926 40.9933 24.5488 39.2076 24.5488ZM32.0549 35.587C31.4161 35.587 13.5312 35.587 12.5279 35.587C11.5604 35.587 10.7733 34.7999 10.7733 33.8324V27.7164C10.7733 26.7489 11.5604 25.9617 12.5279 25.9617H13.6106C14.5781 25.9617 15.3652 26.7489 15.3652 27.7164V31.7016C15.3652 32.0917 15.6816 32.408 16.0717 32.408C16.4618 32.408 16.7781 32.0917 16.7781 31.7016V27.7164C16.7781 25.9698 15.3572 24.5488 13.6106 24.5488H12.5279C10.7813 24.5488 9.36038 25.9698 9.36038 27.7164V33.8325C9.36038 35.5791 10.7813 37 12.5279 37H32.0549C32.445 37 32.7613 36.6837 32.7613 36.2936C32.7613 35.9034 32.445 35.587 32.0549 35.587Z" fill="#053D4F"/>
<path d="M42.1188 10.2785H39.621L39.9526 8.41264H40.1137C40.1486 8.41265 40.1832 8.40651 40.2154 8.39459C40.2477 8.38266 40.277 8.36518 40.3017 8.34314C40.3264 8.32109 40.346 8.29492 40.3594 8.26612C40.3727 8.23732 40.3796 8.20645 40.3796 8.17528V7.32342C40.3796 7.29225 40.3727 7.26138 40.3594 7.23258C40.346 7.20378 40.3264 7.17761 40.3017 7.15556C40.277 7.13352 40.2477 7.11604 40.2154 7.10411C40.1832 7.09219 40.1486 7.08605 40.1137 7.08606H39.2678C39.5821 6.76242 39.8469 6.40301 40.0552 6.01724C40.408 5.32404 40.5832 4.56934 40.5679 3.80809C40.5648 3.76547 40.549 3.72435 40.5222 3.68902C40.4953 3.65369 40.4583 3.62543 40.415 3.60717C40.3718 3.58892 40.3238 3.58134 40.2762 3.58523C40.2285 3.58911 40.1829 3.60432 40.144 3.62927C39.6518 3.97713 39.2265 4.39451 38.8852 4.86489C38.7993 4.32388 38.6164 3.79874 38.3435 3.3096C38.3207 3.27187 38.287 3.24034 38.2457 3.21836C38.2045 3.19638 38.1574 3.18478 38.1094 3.18478C38.0614 3.18478 38.0142 3.19638 37.973 3.21836C37.9318 3.24034 37.898 3.27187 37.8752 3.3096C37.602 3.79864 37.419 4.3238 37.3331 4.86486C36.9917 4.39451 36.5665 3.97713 36.0742 3.62925C36.0353 3.6043 35.9897 3.58909 35.9421 3.58521C35.8944 3.58133 35.8465 3.5889 35.8032 3.60716C35.7599 3.62541 35.7229 3.65368 35.6961 3.68901C35.6692 3.72435 35.6534 3.76547 35.6503 3.80809C35.6351 4.5695 35.8103 5.32436 36.1633 6.01769C36.3717 6.40327 36.6364 6.76252 36.9505 7.08605H36.1046C36.0696 7.08604 36.0351 7.09217 36.0028 7.1041C35.9705 7.11602 35.9412 7.13351 35.9165 7.15555C35.8918 7.17759 35.8722 7.20376 35.8589 7.23257C35.8455 7.26137 35.8386 7.29224 35.8386 7.32341V8.17527C35.8386 8.20644 35.8455 8.23731 35.8589 8.26611C35.8722 8.29491 35.8918 8.32108 35.9165 8.34312C35.9412 8.36517 35.9705 8.38265 36.0028 8.39458C36.0351 8.4065 36.0696 8.41264 36.1046 8.41263H36.2669L36.5988 10.2785H33.3088L33.5709 7.94741C34.1605 7.64743 34.0251 6.694 33.3321 6.58857C33.5229 5.32392 33.7687 5.21645 33.7714 5.21348C33.8664 5.22287 34.0838 5.48004 34.1552 5.56465C34.4679 6.0152 34.9939 5.97233 34.9247 5.11902C34.8298 3.87068 33.7611 3.0431 32.4225 4.30328C32.4218 3.41565 31.9351 1.80366 31.3553 1.89429C30.5607 1.87225 30.1267 3.80866 30.0283 4.72389C29.4519 4.28551 28.7047 3.976 28.236 4.26821C27.7308 4.58352 27.8142 5.39324 28.0634 6.05694C28.0666 6.11347 28.0926 6.16706 28.1365 6.2079C28.1804 6.24874 28.2394 6.2741 28.3025 6.27934C28.3657 6.28458 28.4288 6.26935 28.4804 6.23643C28.532 6.20352 28.5686 6.15512 28.5835 6.1001C28.6212 5.92255 28.6862 5.75051 28.7767 5.58888C28.9946 5.9082 29.1534 6.25675 29.2471 6.62116C29.1035 6.67068 28.9799 6.75778 28.8927 6.87104C28.8055 6.98429 28.7586 7.11843 28.7583 7.25586C28.7428 7.37519 28.7609 7.49607 28.8108 7.60763C28.8607 7.71918 28.9409 7.8179 29.0442 7.8949L29.3127 10.2785H27.7581C27.7232 10.2785 27.6886 10.2846 27.6563 10.2965C27.6241 10.3085 27.5948 10.326 27.5701 10.348C27.5454 10.37 27.5258 10.3962 27.5124 10.425C27.4991 10.4538 27.4922 10.4847 27.4922 10.5159V11.5817C27.4922 11.6128 27.4991 11.6437 27.5124 11.6725C27.5258 11.7013 27.5454 11.7275 27.5701 11.7495C27.5948 11.7716 27.6241 11.789 27.6563 11.801C27.6886 11.8129 27.7232 11.819 27.7581 11.819H42.1188C42.1538 11.819 42.1884 11.8129 42.2206 11.801C42.2529 11.789 42.2822 11.7716 42.3069 11.7495C42.3316 11.7275 42.3512 11.7013 42.3646 11.6725C42.3779 11.6437 42.3848 11.6128 42.3848 11.5817V10.5159C42.3848 10.4847 42.3779 10.4538 42.3646 10.425C42.3512 10.3962 42.3316 10.37 42.3069 10.348C42.2822 10.326 42.2529 10.3085 42.2206 10.2965C42.1884 10.2846 42.1538 10.2785 42.1188 10.2785ZM40.0085 4.37472C39.9911 5.1391 39.3413 6.43762 38.6718 6.96708C38.8494 6.61488 38.8241 6.02073 39.0376 5.59049C39.284 5.14026 39.612 4.72947 40.0085 4.37472ZM38.1095 4.03282C38.4758 4.77113 38.4905 6.20308 38.1089 6.97341C37.9209 6.50167 37.8208 6.00561 37.8127 5.50496C37.8197 5.00297 37.92 4.5055 38.1095 4.03282ZM36.2097 4.37367C36.6063 4.72872 36.9343 5.13983 37.1805 5.59038C37.3958 6.02214 37.3699 6.61944 37.5471 6.96869C36.8781 6.43918 36.2262 5.13787 36.2097 4.37367ZM36.8053 8.41263H39.4143L39.0826 10.2785H37.1371L36.8053 8.41263ZM33.8459 4.17178C34.2262 4.31848 34.3327 4.75072 34.3843 5.05886C33.4942 4.2254 32.9997 5.0751 32.7979 6.57342L31.8325 6.57344C31.8537 6.00778 32.0679 5.46138 32.4466 5.00741C32.993 4.36881 33.5039 4.06411 33.8459 4.17178ZM30.6609 4.09691C30.8634 3.18537 31.1849 2.46807 31.3317 2.37407C31.6622 2.65855 32.0076 4.2401 31.8664 4.906C31.5242 5.41076 31.3294 5.98408 31.2997 6.57345H31.1614C31.0927 6.06708 30.8733 5.58637 30.5261 5.18127C30.5364 4.81706 30.5815 4.45429 30.6609 4.09691ZM28.7318 5.07509C28.6675 5.08137 28.6054 5.09935 28.5492 5.12791C28.493 5.15647 28.444 5.19501 28.4052 5.24115C28.377 4.93926 28.4319 4.72532 28.5409 4.65739C28.791 4.5007 29.6194 4.92836 30.0947 5.45965C30.3776 5.78303 30.5603 6.16714 30.6244 6.57343H29.7859C29.4276 5.47046 29.1265 5.04368 28.7318 5.07509ZM29.5962 8.04953H33.0248L32.7742 10.2785H29.8473L29.5962 8.04953Z" fill="#053D4F"/>
</svg>
