<svg width="35" height="39" viewBox="0 0 35 39" fill="none" xmlns="http://www.w3.org/2000/svg">
<path d="M32.9003 22.7356L33.0029 19.7097C32.9407 19.178 32.8358 18.6609 32.6598 18.0546L31.5149 15.2619C31.2427 14.7611 30.9701 14.3097 30.6751 13.8683L28.8551 11.4791C28.5245 11.0983 28.1669 10.7071 27.7789 10.2981L25.6296 8.23451C25.2238 7.85582 24.8205 7.50286 24.4231 7.1831L22.0502 5.33095C21.5731 4.99298 21.147 4.69939 20.7342 4.43568L18.1154 2.96597C17.6766 2.75416 17.2099 2.55025 16.6183 2.31695L13.7218 1.48996C13.1394 1.37785 12.6134 1.3122 12.117 1.28264C12.0697 1.27686 12.0236 1.28395 12.0087 1.2906L9.04315 1.5146C8.46089 1.64407 7.94879 1.80047 7.42263 2.02578L4.81908 3.56532C4.41667 3.88768 4.02882 4.25278 3.69909 4.6278C3.6576 4.65522 3.62276 4.69758 3.59539 4.73662L1.91683 7.2381C1.64695 7.74756 1.44266 8.26363 1.28198 8.8274L0.873025 11.8286C0.892912 12.406 0.992886 12.9521 1.17546 13.4929C1.18669 13.5281 1.20538 13.5601 1.22408 13.592L2.82621 16.0648L2.88852 16.1444C3.29015 16.5339 3.71582 16.8769 4.21744 17.1995L6.91503 18.5446C7.45143 18.7444 7.95294 18.9059 8.45401 19.0363L11.3715 19.6794C11.8925 19.7741 12.4089 19.8485 12.9606 19.9117L15.9351 20.1803C16.1834 20.1951 16.4337 20.2045 16.6894 20.216L16.7624 20.2192C16.7624 20.2192 17.3414 20.2433 17.4016 20.2479L20.0968 21.1153C20.5253 21.3541 20.9306 21.6211 21.2857 21.906L23.33 23.985C23.6482 24.3982 23.9266 24.8023 24.1443 25.1707L25.315 27.9609C25.4538 28.2123 25.6682 28.5733 25.7858 28.7671C25.7118 29.2341 25.4112 29.6946 25.2361 29.7636C25.0066 29.8613 24.8976 30.1291 24.9953 30.3586C25.0452 30.4706 25.1345 30.5606 25.2478 30.6041C25.3612 30.6476 25.4803 30.6438 25.5903 30.5993C26.0193 30.4172 26.4332 29.8392 26.6175 29.1978C26.8487 29.2246 27.0786 29.2386 27.3061 29.2268C27.3812 29.2247 27.4592 29.1989 27.5231 29.1615L30.0993 27.5805C30.3282 27.3711 30.524 27.1676 30.7331 26.9135L32.3485 24.4311L32.3883 24.3597C32.6155 23.8648 32.782 23.3342 32.9003 22.7356ZM26.5521 28.2872C26.4345 28.0934 26.2421 27.7719 26.1353 27.5822L24.9593 24.79C24.6942 24.3353 24.4025 23.9013 24.0145 23.4118L21.8929 21.2598C21.4477 20.9031 20.998 20.6066 20.4852 20.3293L20.469 20.3231L17.6659 19.4142C17.6065 19.3914 17.4862 19.3824 17.4862 19.3824C17.3969 19.3729 17.3131 19.3655 17.2379 19.3676L16.7888 19.3438C16.5095 19.3295 16.2355 19.3172 15.9873 19.3024L13.0418 19.0387C12.5192 18.9805 12.021 18.907 11.5345 18.8193L8.65684 18.1853C8.22135 18.0615 7.74683 17.9103 7.2698 17.7334L4.66189 16.4288C4.25661 16.1618 3.87662 15.8611 3.55889 15.5596L2.01286 13.1827C1.86938 12.7498 1.7869 12.3033 1.76712 11.887L2.15874 9.02772C2.2921 8.58351 2.47567 8.12142 2.68792 7.71368L4.313 5.30313C4.63859 4.93891 4.99989 4.59458 5.33426 4.32041L7.82703 2.84362C8.24655 2.67026 8.71258 2.52095 9.17282 2.41895L12.1201 2.19413C12.5509 2.21709 13.0275 2.28236 13.514 2.37004L16.3275 3.17136C16.8651 3.38394 17.2994 3.57541 17.6972 3.76525L20.2641 5.20885C20.6822 5.47463 21.0975 5.76408 21.5464 6.07882L23.8574 7.88245C24.2353 8.18852 24.6191 8.5278 25.0074 8.88741L27.1339 10.9298C27.499 11.3177 27.8479 11.6993 28.1545 12.0461L29.9362 14.3897C30.1951 14.7801 30.4577 15.2091 30.6999 15.6427L31.807 18.3403C31.9439 18.8387 32.0451 19.3172 32.1014 19.7352L31.9999 22.6129C31.9002 23.0824 31.7532 23.5462 31.5808 23.963L30.0159 26.3781C29.8574 26.565 29.6828 26.7456 29.5621 26.8665L27.1615 28.3291C26.9083 28.3434 26.6899 28.3153 26.5521 28.2872Z" fill="white"/>
<path d="M20.1851 36.784C20.1892 36.6927 20.1547 36.6051 20.0936 36.5383C20.0588 36.5002 20.0143 36.4707 19.9657 36.4521C19.847 36.4065 19.7067 36.4332 19.6113 36.5204L18.0595 37.9497C17.9927 38.0107 17.9541 38.095 17.9501 38.1863C17.946 38.2776 17.9805 38.3652 18.0415 38.432C18.0764 38.4701 18.1209 38.4996 18.1694 38.5182C18.2936 38.5659 18.4284 38.5372 18.5239 38.4499L20.0757 37.0207C20.1425 36.9596 20.181 36.8753 20.1851 36.784Z" fill="white"/>
<path d="M19.4798 36.024C19.4839 35.9327 19.4494 35.8452 19.3884 35.7784C19.3535 35.7402 19.309 35.7108 19.2605 35.6921C19.1363 35.6445 19.0014 35.6732 18.906 35.7604L17.3542 37.1897C17.2874 37.2508 17.2489 37.3351 17.2448 37.4264C17.2407 37.5177 17.2752 37.6052 17.3362 37.672C17.3711 37.7102 17.4156 37.7396 17.4641 37.7583C17.5883 37.8059 17.7232 37.7772 17.8186 37.69L19.3704 36.2607C19.4393 36.1942 19.4778 36.11 19.4798 36.024Z" fill="white"/>
<path d="M18.7712 35.2566C18.7753 35.1653 18.7408 35.0778 18.6797 35.011C18.6449 34.9728 18.6004 34.9434 18.5518 34.9247C18.4331 34.8791 18.2928 34.9058 18.1974 34.993L16.6456 36.4223C16.5788 36.4833 16.5403 36.5676 16.5362 36.659C16.5321 36.7503 16.5666 36.8378 16.6276 36.9046C16.6625 36.9428 16.707 36.9722 16.7555 36.9909C16.8797 37.0385 17.0145 37.0098 17.11 36.9226L18.6618 35.4933C18.7286 35.4322 18.7671 35.3479 18.7712 35.2566Z" fill="white"/>
<path d="M31.2543 27.0611C31.0762 26.9927 30.9105 26.892 30.768 26.763C30.0765 26.1446 29.9132 25.1344 30.3863 24.4181C30.5791 24.0772 30.9458 23.8155 31.4082 23.7081C31.8082 23.6016 32.1971 23.6208 32.5642 23.7617C32.6019 23.7762 32.6343 23.7886 32.67 23.8085C33.1238 24.0137 33.4645 24.4169 33.5826 24.8834C33.6954 25.3478 33.6082 25.8654 33.3395 26.3072C32.8635 27.0472 32.0045 27.3491 31.2543 27.0611Z" fill="white"/>
<path d="M32.4471 22.8981C31.6699 22.5997 31.1688 21.8563 31.2563 21.1282C31.2143 20.3504 31.9531 19.5874 32.8931 19.4776C33.1525 19.4471 33.3999 19.4802 33.6428 19.5734C34.3067 19.8283 34.7433 20.4975 34.7617 21.2724C34.7061 21.9013 34.4383 22.4053 34.0089 22.7173C33.6454 22.9865 33.1981 23.0873 32.763 22.9946C32.6488 22.9693 32.5442 22.9354 32.4471 22.8981Z" fill="white"/>
<path d="M31.4827 18.4612C31.0132 18.2809 30.656 17.9209 30.5005 17.471C30.1173 16.7109 30.4885 15.6954 31.3433 15.2432C31.7706 15.0171 32.2587 14.9878 32.7229 15.1659C33.1655 15.3358 33.531 15.6743 33.7433 16.1212C33.9475 16.6702 33.9196 17.2106 33.6867 17.6723C33.4723 18.0855 33.1168 18.3825 32.6794 18.5056C32.2827 18.6196 31.8552 18.6041 31.4827 18.4612Z" fill="white"/>
<path d="M29.1875 14.5681C28.8961 14.4562 28.639 14.2708 28.4338 14.0311C27.8502 13.293 27.9744 12.1951 28.6979 11.5687C29.1679 11.167 29.8224 11.0591 30.4107 11.2849C30.7183 11.403 30.9928 11.6075 31.2005 11.873C31.5062 12.238 31.6473 12.7256 31.5725 13.2109C31.5051 13.6928 31.2277 14.1251 30.8278 14.3927C30.3374 14.7184 29.7434 14.7815 29.1875 14.5681Z" fill="white"/>
<path d="M26.1645 11.2229C25.9486 11.1401 25.7493 11.014 25.5732 10.8597C24.8779 10.2027 24.8344 9.08994 25.4848 8.37975C25.9659 7.85229 26.715 7.6754 27.3951 7.93645C27.6164 8.02139 27.8211 8.14951 27.993 8.3146C28.3377 8.62651 28.5385 9.08752 28.5442 9.57273C28.5499 10.0579 28.3568 10.5288 28.0167 10.8502C27.5123 11.3254 26.8067 11.4695 26.1645 11.2229Z" fill="white"/>
<path d="M22.7398 8.24749C22.5725 8.18327 22.4209 8.09413 22.2776 7.9834C21.5372 7.39573 21.3891 6.32951 21.9419 5.55089C22.4022 4.91637 23.2405 4.66844 23.9853 4.95435C24.1527 5.01857 24.3096 5.10978 24.4529 5.22051C24.847 5.5328 25.0872 5.97179 25.1294 6.45864C25.1746 6.92183 25.0337 7.36936 24.738 7.72029C24.2523 8.30793 23.4468 8.5189 22.7398 8.24749Z" fill="white"/>
<path d="M18.9918 5.71553C18.9054 5.68238 18.8158 5.64176 18.7356 5.59242C17.9264 5.15173 17.6156 4.12215 18.0405 3.25728C18.4297 2.45304 19.3771 2.09836 20.2407 2.42985C20.3162 2.45886 20.3951 2.49533 20.4719 2.5372C20.9158 2.80048 21.232 3.21908 21.3427 3.68887C21.4488 4.13832 21.3715 4.59785 21.1289 4.98776C20.6612 5.70614 19.769 6.01387 18.9918 5.71553Z" fill="white"/>
<path d="M14.8462 3.92476C14.0366 3.61399 13.5736 2.7551 13.7354 1.8821C13.8181 1.42464 14.1034 1.02018 14.5133 0.775016C14.9423 0.512411 15.4686 0.448146 15.956 0.598082C16.0012 0.609259 16.0573 0.62458 16.1059 0.643227C16.543 0.811044 16.8911 1.13042 17.0848 1.54536C17.2764 1.9657 17.2958 2.4314 17.1321 2.85778C16.7985 3.72674 15.8508 4.21133 14.9745 3.96162C14.9218 3.95377 14.884 3.93926 14.8462 3.92476Z" fill="white"/>
<path d="M10.3914 3.3922C10.2295 3.33004 10.0704 3.24423 9.92715 3.1335C9.56461 2.8519 9.32071 2.45484 9.23409 2.01907C9.14038 1.53724 9.25712 1.05568 9.56526 0.67237C9.86261 0.284915 10.3402 0.0409563 10.8615 0.00574917C11.1296 -0.0151799 11.4007 0.0207538 11.6544 0.118129C12.3506 0.385393 12.786 1.04175 12.752 1.75943C12.7037 2.67593 12.0077 3.42434 11.1274 3.50752C10.8613 3.52305 10.6235 3.48128 10.3914 3.3922Z" fill="white"/>
<path d="M6.0639 4.7025C5.75086 4.58233 5.47637 4.37788 5.25579 4.11363C4.96086 3.75271 4.84142 3.27338 4.92495 2.79766C5.01344 2.29288 5.33358 1.84605 5.79247 1.57015C6.21941 1.31294 6.74235 1.2412 7.22516 1.3708L7.33518 1.40684C7.76696 1.57259 8.10213 1.89322 8.28296 2.30941C8.45506 2.71607 8.47653 3.17637 8.34192 3.60771C8.22846 4.01622 7.95847 4.36464 7.58796 4.58777C7.13862 4.85496 6.57124 4.89725 6.0639 4.7025Z" fill="white"/>
<path d="M2.73256 7.79068C2.67319 7.76789 2.61382 7.7451 2.55653 7.71691C2.13592 7.50592 1.83101 7.12259 1.71075 6.66153C1.58466 6.16726 1.67812 5.63342 1.98125 5.19865C2.45149 4.506 3.29887 4.21822 4.04369 4.50413C4.2272 4.57457 4.39288 4.67533 4.54073 4.80639C5.2289 5.41734 5.38273 6.43623 4.89052 7.16998C4.42525 7.83357 3.52056 8.09317 2.73256 7.79068Z" fill="white"/>
<path d="M1.06387 12.0036C0.810196 11.9062 0.581387 11.7441 0.402353 11.5329C0.102839 11.1516 -0.0406967 10.6383 0.0100169 10.119C0.109689 9.56899 0.383762 9.12925 0.78246 8.84881C1.18656 8.57045 1.69331 8.4925 2.17737 8.63497C2.22802 8.64822 2.27119 8.66479 2.31977 8.68344C2.67599 8.82018 2.97791 9.06612 3.21347 9.40424C3.48186 9.78593 3.57802 10.213 3.48947 10.6372C3.46438 10.993 3.24423 11.3729 2.87584 11.6712C2.64561 11.8676 2.25062 12.1061 1.70647 12.1202C1.47777 12.1191 1.26357 12.0802 1.06387 12.0036Z" fill="white"/>
<path d="M2.07616 16.3881C1.73074 16.2555 1.40516 16.0067 1.16877 15.6868C0.868336 15.1628 0.78041 14.6336 0.90047 14.1595C1.03007 13.6767 1.39382 13.2776 1.87975 13.0926C2.26525 12.9433 2.67201 12.9323 3.12244 13.0494C3.19675 13.0656 3.26691 13.0925 3.34247 13.1215C3.6933 13.2562 3.95078 13.4727 4.10621 13.7615C4.32596 14.044 4.4134 14.4615 4.33816 14.9156C4.26989 15.2548 4.14814 15.6849 3.76983 16.0412C3.38945 16.403 2.86035 16.5715 2.39416 16.4792C2.29619 16.4602 2.18411 16.4295 2.07616 16.3881Z" fill="white"/>
<path d="M5.33009 19.1341C4.80857 18.8472 4.46337 18.4236 4.33936 17.924C4.23115 17.4799 4.30639 17.0258 4.55021 16.6488C5.02333 15.9324 5.93668 15.6019 6.67611 15.8857C6.74627 15.9126 6.80897 15.9429 6.87499 15.9806C7.66135 16.3196 8.04263 17.3268 7.70618 18.2194C7.54872 18.6296 7.24303 18.9581 6.83223 19.141C6.39156 19.3372 5.88601 19.3475 5.41645 19.1672L5.33009 19.1341Z" fill="white"/>
<path d="M9.73746 20.6035C8.8793 20.2741 8.41591 19.3841 8.65526 18.5347C8.91616 17.6131 9.85508 17.0384 10.7568 17.2545C10.8365 17.2727 10.9012 17.2975 10.9606 17.3203C11.781 17.6353 12.2551 18.4489 12.1037 19.2949C12.0202 19.7706 11.7341 20.1934 11.3233 20.4568C10.9126 20.7202 10.4316 20.7956 9.96496 20.6723C9.90145 20.6603 9.81842 20.6346 9.73746 20.6035Z" fill="white"/>
<path d="M14.2161 21.2709C13.4551 20.9788 12.9893 20.2241 13.0888 19.4325C13.2085 18.4752 14.0706 17.7782 15.0137 17.8863C15.1685 17.9024 15.3279 17.9388 15.4791 17.9968C16.2023 18.2744 16.6556 18.981 16.6138 19.7514C16.5838 20.2167 16.3645 20.6589 16.0048 20.9667C15.6377 21.2778 15.1717 21.4272 14.6943 21.3802C14.5212 21.3633 14.3672 21.3289 14.2161 21.2709Z" fill="white"/>
<path d="M18.7151 21.7835C17.9865 21.5038 17.5186 20.674 17.6064 19.816C17.6493 19.3494 17.9097 18.9292 18.315 18.6637C18.7693 18.3674 19.3396 18.3015 19.8917 18.4763L19.9835 18.5115C20.48 18.7021 20.8655 19.0854 21.0384 19.5543C21.2035 19.9954 21.1652 20.4823 20.9476 20.888C20.5247 21.6669 19.5973 22.0664 18.8015 21.8166L18.7151 21.7835Z" fill="white"/>
<path d="M22.4435 24.2287C22.2114 24.1397 22.0088 24.0061 21.841 23.8303C21.22 23.1894 21.1928 22.1633 21.7688 21.437C22.2205 20.8735 22.9928 20.6683 23.6944 20.9377C23.9427 21.033 24.1649 21.1802 24.3501 21.3751C24.7194 21.7522 24.9036 22.2564 24.8719 22.7582C24.8378 23.2343 24.6139 23.6562 24.2422 23.947C23.7336 24.3524 23.0426 24.4587 22.4435 24.2287Z" fill="white"/>
<path d="M24.9708 27.9489C24.5067 27.7708 24.152 27.4364 23.9753 27.0095C23.6556 26.1808 24.0169 25.2234 24.804 24.77C25.2268 24.5236 25.7427 24.4863 26.2122 24.6666C26.6764 24.8448 27.0369 25.2123 27.2348 25.6969C27.446 26.2115 27.4186 26.7831 27.1557 27.2581C26.9169 27.6866 26.5162 27.9724 26.0513 28.0541C25.6807 28.1162 25.3109 28.0795 24.9708 27.9489Z" fill="white"/>
<path d="M28.3109 29.7018C27.8413 29.5215 27.4841 29.1615 27.3286 28.7116C26.9454 27.9515 27.3166 26.936 28.1714 26.4838C28.5987 26.2577 29.0869 26.2284 29.551 26.4065C29.9936 26.5764 30.3591 26.9149 30.5715 27.3618C30.7756 27.9108 30.7478 28.4512 30.5148 28.9129C30.3005 29.3261 29.9449 29.6231 29.5075 29.7462C29.1108 29.8602 28.6833 29.8447 28.3109 29.7018Z" fill="white"/>
<path d="M25.908 32.4581C25.5911 32.7513 25.1832 32.9106 24.7602 32.9154C24.7113 33.0267 24.6434 33.1554 24.5604 33.2908C24.2275 33.8194 23.6045 34.4905 22.4342 34.8773C21.0727 35.3269 20.6411 36.7093 20.6369 36.7201L20.4966 37.1988L18.4056 34.9347L18.897 34.8323C18.9119 34.8257 20.3225 34.5064 20.8829 33.1919C21.3536 32.0784 22.0713 31.4993 22.6224 31.2092C22.763 31.1332 22.8921 31.0712 23.0074 31.0288C23.052 30.6062 23.2451 30.216 23.5587 29.9152C24.0474 29.465 24.7413 29.335 25.362 29.5733C25.6103 29.6686 25.827 29.8137 26.0069 30.0066C26.6428 30.7214 26.6066 31.8159 25.908 32.4581Z" fill="white"/>
<path d="M26.2959 28.2207L28.6084 29.3596Z" fill="white"/>
<path d="M28.747 28.9781C28.7412 29.0995 28.7238 29.2441 28.6949 29.4002L26.1396 28.1514C26.2437 28.03 26.342 27.9259 26.4345 27.845L28.747 28.9781Z" fill="white"/>
</svg>
