<svg width="39" height="37" viewBox="0 0 39 37" fill="none" xmlns="http://www.w3.org/2000/svg">
<path fill-rule="evenodd" clip-rule="evenodd" d="M37.6172 24.0498H33.9172V16.033C33.9172 15.9065 33.8782 15.783 33.8054 15.6796L29.4886 9.51279C29.4318 9.43156 29.3562 9.36523 29.2682 9.31944C29.1803 9.27365 29.0826 9.24974 28.9834 9.24974C28.8843 9.24974 28.7866 9.27365 28.6986 9.31944C28.6107 9.36523 28.5351 9.43156 28.4782 9.51279L24.1615 15.6796C24.0889 15.7831 24.0501 15.9065 24.0503 16.033V19.8921C23.2059 18.7568 22.0792 17.8148 20.688 17.0882C22.0615 15.4737 22.81 13.376 22.81 11.0996C22.8133 10.0937 22.6607 9.09344 22.3578 8.13429C22.9584 7.81724 23.4758 7.36294 23.8678 6.8083C24.2598 6.25367 24.5154 5.61436 24.6139 4.94235C24.7123 4.27033 24.6508 3.58457 24.4343 2.94081C24.2178 2.29705 23.8525 1.71345 23.368 1.23746C22.8835 0.76147 22.2935 0.406517 21.646 0.201454C20.9985 -0.00360895 20.3118 -0.0529946 19.6416 0.0573112C18.9715 0.167617 18.3368 0.434501 17.7892 0.836271C17.2416 1.23804 16.7965 1.76336 16.4901 2.36952C15.3414 2.01558 14.1452 1.84017 12.9432 1.84943C11.7413 1.84017 10.5452 2.01561 9.39654 2.36959C9.09018 1.76343 8.64511 1.23811 8.0975 0.836331C7.5499 0.434555 6.91522 0.167662 6.24505 0.0573478C5.57488 -0.0529667 4.88814 -0.00359009 4.24064 0.201464C3.59315 0.406519 3.00318 0.761464 2.51868 1.23745C2.03419 1.71343 1.66885 2.29702 1.45235 2.94078C1.23586 3.58454 1.17432 4.2703 1.27274 4.94232C1.37117 5.61433 1.62677 6.25364 2.01878 6.80828C2.41079 7.36292 2.92815 7.81723 3.52879 8.13429C3.22581 9.09344 3.07319 10.0937 3.07638 11.0996C3.07638 13.376 3.82518 15.4738 5.19844 17.0882C2.19615 18.6563 0.425979 21.228 0.0628335 24.5761L0.0628294 24.5762C0.0620599 24.5839 0.0612908 24.5916 0.0607522 24.5992L0.00147418 25.4458C-0.000491393 25.4736 -0.000491393 25.5015 0.00147418 25.5294C0.0507816 26.2512 0.310203 26.9428 0.747769 27.519C1.18534 28.0952 1.78193 28.5308 2.46402 28.7721C2.05715 29.606 1.84707 30.5221 1.84996 31.4499C1.84996 34.5102 4.06306 37 6.78338 37C8.24798 37 9.56482 36.2776 10.4692 35.1336C11.2301 35.549 12.0832 35.7666 12.9501 35.7666C13.8171 35.7666 14.6701 35.549 15.4311 35.1336C16.3355 36.2776 17.6523 37 19.1169 37C21.0499 37 22.7258 35.7423 23.5346 33.9166H37.6172C37.7808 33.9166 37.9376 33.8516 38.0533 33.736C38.1689 33.6203 38.2339 33.4635 38.2339 33.2999V24.6665C38.2339 24.5029 38.1689 24.3461 38.0533 24.2304C37.9376 24.1148 37.7808 24.0498 37.6172 24.0498ZM28.9837 10.9416L32.1161 15.4163H25.8514L28.9837 10.9416ZM25.2837 16.6497H32.6838V24.0498H25.7526C25.6554 23.4196 25.4984 22.8001 25.2837 22.1998V16.6497ZM23.4342 28.7678C24.0153 28.5592 24.5354 28.2094 24.9477 27.7498H25.9004V30.2166H23.926C23.8251 29.7145 23.6598 29.2276 23.4342 28.7678ZM24.5961 24.6978L24.6516 25.4881C24.6072 26.0101 24.3981 26.5045 24.0545 26.8999C23.7109 27.2953 23.2506 27.5714 22.7399 27.6882C21.9668 26.7466 20.9084 26.107 19.7206 25.9431C19.6082 23.4349 18.7628 21.1205 17.3814 19.5002C18.2524 19.1322 19.06 18.6296 19.7747 18.0106C22.5994 19.3637 24.2638 21.6673 24.5961 24.6973V24.6978ZM20.3433 1.23275C21.0209 1.23253 21.6797 1.4555 22.2178 1.8672C22.756 2.2789 23.1435 2.8564 23.3206 3.51042C23.4976 4.16445 23.4543 4.85859 23.1973 5.48554C22.9404 6.11248 22.484 6.63733 21.8989 6.97894C21.4684 6.07687 20.8841 5.25667 20.1722 4.5551C19.4376 3.83455 18.5838 3.24657 17.6487 2.81715C17.9164 2.33734 18.3073 1.9376 18.7809 1.65911C19.2545 1.38061 19.7939 1.23344 20.3433 1.23275ZM2.4597 4.31613C2.45952 3.63302 2.68619 2.96919 3.10413 2.42884C3.52207 1.8885 4.10761 1.50224 4.76884 1.33071C5.43006 1.15918 6.12953 1.21208 6.75744 1.48112C7.38534 1.75015 7.90613 2.22009 8.23804 2.81715C7.30289 3.24652 6.44912 3.83452 5.71452 4.5551C5.00257 5.25662 4.41827 6.0768 3.98783 6.97887C3.5232 6.70665 3.13776 6.31774 2.86972 5.85068C2.60168 5.38363 2.46034 4.85464 2.4597 4.31613ZM6.57933 5.43448C8.14384 3.89602 10.3447 3.08278 12.9432 3.08278C15.5417 3.08278 17.7426 3.89602 19.3072 5.43455C20.7707 6.87372 21.5767 8.88555 21.5767 11.0996C21.5767 13.3136 20.7707 15.3254 19.3072 16.7646C17.7426 18.3031 15.542 19.1164 12.9432 19.1164C10.3445 19.1164 8.14384 18.3031 6.57933 16.7647C5.11573 15.3254 4.30973 13.3136 4.30973 11.0996C4.30973 8.88555 5.11573 6.87372 6.57933 5.43448ZM1.2349 25.488L1.29025 24.6975C1.62256 21.6672 3.28674 19.3637 6.11166 18.0104C6.82952 18.632 7.64107 19.1363 8.51632 19.5047C7.13905 21.1255 6.29266 23.4467 6.17973 25.9428C4.99085 26.1069 3.93125 26.7477 3.15817 27.6905C2.64497 27.5757 2.18176 27.3003 1.83588 26.9042C1.48999 26.508 1.27947 26.0119 1.2349 25.488ZM6.78338 35.7666C4.7431 35.7666 3.08332 33.8302 3.08332 31.4499C3.08332 29.0696 4.7431 27.1332 6.78338 27.1332C8.82365 27.1332 10.4834 29.0696 10.4834 31.4499C10.4834 33.8302 8.82365 35.7666 6.78338 35.7666ZM12.9501 34.5333C12.3146 34.5312 11.6887 34.3771 11.1248 34.0839C11.5174 33.2615 11.7197 32.3612 11.7168 31.4499C11.7168 28.6303 9.8377 26.2967 7.41455 25.9468C7.5331 23.5418 8.39714 21.3433 9.78459 19.9438C10.8146 20.2195 11.8769 20.356 12.9432 20.3497C14.0131 20.3562 15.079 20.2188 16.1122 19.9412C17.5041 21.3403 18.3681 23.5301 18.486 25.947C16.0627 26.2966 14.1835 28.6302 14.1835 31.4499C14.1806 32.3612 14.3829 33.2615 14.7755 34.0839C14.2116 34.3771 13.5857 34.5312 12.9501 34.5333ZM19.1169 35.7666C17.0766 35.7666 15.4169 33.8302 15.4169 31.4499C15.4169 29.0696 17.0766 27.1332 19.1169 27.1332C21.1572 27.1332 22.817 29.0696 22.817 31.4499C22.817 33.8302 21.1572 35.7666 19.1169 35.7666ZM24.0503 31.4499H26.517C26.6806 31.4499 26.8374 31.3849 26.9531 31.2693C27.0687 31.1536 27.1337 30.9968 27.1337 30.8332V27.1332C27.1337 26.9696 27.0687 26.8128 26.9531 26.6971C26.8374 26.5815 26.6806 26.5165 26.517 26.5165H25.6812C25.7943 26.1984 25.8629 25.8662 25.8852 25.5294C25.8871 25.5015 25.8871 25.4736 25.8852 25.4458L25.8738 25.2831H28.3671V32.6833H23.926C24.0085 32.2773 24.0502 31.8641 24.0503 31.4499ZM37.0005 32.6833H29.6004V25.2831H37.0005V32.6833ZM17.2568 9.86668C17.2568 10.2073 16.9807 10.4834 16.6401 10.4834C16.2995 10.4834 16.0234 10.2073 16.0234 9.86668C16.0234 9.5261 16.2995 9.25 16.6401 9.25C16.9807 9.25 17.2568 9.5261 17.2568 9.86668ZM17.8746 13.2592C17.8746 15.4694 15.6615 17.2676 12.9412 17.2676C10.2209 17.2676 8.00781 15.4694 8.00781 13.2592C8.00781 13.0956 8.07278 12.9388 8.18843 12.8231C8.30408 12.7075 8.46094 12.6425 8.62449 12.6425C8.78804 12.6425 8.9449 12.7075 9.06054 12.8231C9.1762 12.9388 9.24117 13.0956 9.24117 13.2592C9.24117 14.6318 10.577 15.7741 12.3245 15.9949V14.0377C12.2593 14.0052 12.1967 13.9676 12.1373 13.9253L11.0907 13.1784C10.8987 13.039 10.7426 12.8559 10.6354 12.6442C10.5283 12.4324 10.4731 12.1982 10.4745 11.9609C10.4745 11.1468 11.1115 10.4844 11.8946 10.4844H13.9878C14.7708 10.4844 15.4079 11.1468 15.4079 11.9609C15.4093 12.1982 15.3541 12.4324 15.2469 12.6442C15.1398 12.8559 14.9837 13.039 14.7916 13.1784L13.7451 13.9253C13.6857 13.9676 13.6231 14.0052 13.5579 14.0377V15.9949C15.3055 15.7741 16.6413 14.6318 16.6413 13.2592C16.6413 13.0956 16.7063 12.9388 16.8219 12.8231C16.9376 12.7075 17.0944 12.6425 17.258 12.6425C17.4215 12.6425 17.5784 12.7075 17.694 12.8231C17.8097 12.9388 17.8746 13.0956 17.8746 13.2592ZM11.7324 12.0793C11.7496 12.1163 11.7753 12.1489 11.8073 12.1743L12.8539 12.9211C12.879 12.9404 12.9097 12.9509 12.9413 12.9509C12.973 12.9509 13.0037 12.9404 13.0288 12.9211L14.0754 12.1743C14.1074 12.1489 14.1331 12.1163 14.1503 12.0793C14.1676 12.0422 14.1759 12.0016 14.1747 11.9607C14.1747 11.8289 14.0892 11.7175 13.988 11.7175H11.8947C11.7936 11.7175 11.708 11.8289 11.708 11.9607C11.7068 12.0016 11.7151 12.0422 11.7324 12.0793ZM9.24168 10.4834C9.58226 10.4834 9.85835 10.2073 9.85835 9.86668C9.85835 9.5261 9.58226 9.25 9.24168 9.25C8.9011 9.25 8.625 9.5261 8.625 9.86668C8.625 10.2073 8.9011 10.4834 9.24168 10.4834ZM30.3528 22.4005C29.9471 22.6716 29.4702 22.8162 28.9823 22.8162C28.3283 22.8155 27.7014 22.5554 27.2389 22.0929C26.7765 21.6305 26.5164 21.0035 26.5156 20.3495C26.5156 19.8617 26.6603 19.3847 26.9313 18.9791C27.2024 18.5734 27.5876 18.2573 28.0384 18.0706C28.4891 17.8839 28.9851 17.835 29.4636 17.9302C29.9421 18.0254 30.3816 18.2603 30.7266 18.6053C31.0715 18.9503 31.3065 19.3898 31.4016 19.8683C31.4968 20.3468 31.448 20.8428 31.2613 21.2935C31.0746 21.7442 30.7584 22.1295 30.3528 22.4005ZM29.6675 19.324C29.4647 19.1885 29.2263 19.1162 28.9823 19.1162C28.6553 19.1166 28.3419 19.2466 28.1106 19.4778C27.8794 19.7091 27.7494 20.0225 27.749 20.3495C27.749 20.5935 27.8213 20.8319 27.9568 21.0347C28.0924 21.2376 28.285 21.3956 28.5103 21.489C28.7357 21.5823 28.9837 21.6068 29.2229 21.5592C29.4622 21.5116 29.682 21.3941 29.8544 21.2216C30.0269 21.0491 30.1444 20.8294 30.192 20.5901C30.2396 20.3509 30.2152 20.1029 30.1218 19.8775C30.0285 19.6522 29.8704 19.4595 29.6675 19.324ZM35.1488 31.449H31.4487C31.3436 31.449 31.2402 31.4221 31.1484 31.3709C31.0566 31.3197 30.9794 31.2459 30.9241 31.1565C30.8689 31.0671 30.8374 30.965 30.8327 30.86C30.8279 30.755 30.8501 30.6505 30.8971 30.5565L32.7472 26.8565C32.7984 26.754 32.8771 26.6679 32.9745 26.6077C33.072 26.5475 33.1842 26.5156 33.2987 26.5156C33.4132 26.5156 33.5255 26.5475 33.6229 26.6077C33.7203 26.6679 33.799 26.754 33.8503 26.8565L35.7003 30.5565C35.7473 30.6505 35.7695 30.755 35.7648 30.86C35.7601 30.965 35.7286 31.0671 35.6733 31.1565C35.6181 31.2459 35.5409 31.3197 35.449 31.3709C35.3572 31.4221 35.2539 31.449 35.1488 31.449ZM34.151 30.2156L33.2987 28.5112L32.4465 30.2156H34.151Z" fill="#053D4F"/>
</svg>
