<svg width="37" height="28" viewBox="0 0 37 28" fill="none" xmlns="http://www.w3.org/2000/svg">
<path fill-rule="evenodd" clip-rule="evenodd" d="M29.1138 27.7645C29.2256 27.7645 29.3393 27.7356 29.4395 27.6818L36.5944 23.8449C36.956 23.6511 37.1031 23.1778 36.9233 22.7881L26.6006 0.435075C26.423 0.0505644 25.977 -0.110662 25.6199 0.0806802L18.4653 3.91757C18.1037 4.11165 17.9563 4.58468 18.1364 4.97436L19.8073 8.59314L20.906 10.9717H15.6015V6.02386C15.6015 5.58854 15.274 5.23567 14.8701 5.23567H9.45468V1.98133C9.45468 1.54602 9.12694 1.19314 8.72327 1.19314H0.731409C0.327454 1.19314 0 1.54602 0 1.98133V26.9492C0 27.3846 0.327454 27.7374 0.731409 27.7374L29.1138 27.7645ZM27.933 26.1881H22.8134V15.1021L27.933 26.1881ZM27.817 22.3993L23.2244 12.4544L29.0697 9.31957L33.6623 19.2645L27.817 22.3993ZM22.5729 11.0432L21.4429 8.59649L21.5273 8.55146L27.2882 5.462L28.4179 7.90838L22.5729 11.0432ZM25.6171 1.84322L26.6364 4.05081L20.7911 7.1856L19.7717 4.97771L25.6171 1.84322ZM1.46282 6.81174H7.99186V21.9059H1.46282V6.81174ZM1.46282 2.76951H7.99186V5.23567H1.46282V2.76951ZM1.46282 23.4823H7.99186V26.1611H1.46282V23.4823ZM9.45468 26.1611V6.81174H11.0651V10.3326C11.0651 11.3446 12.5279 11.3462 12.5279 10.3326V6.81174H14.1387V26.1611H9.45468ZM15.6015 12.5481H21.3506V26.1611H15.6015V12.5481ZM19.573 23.7109H17.4237C16.4845 23.7109 16.4831 25.2873 17.4237 25.2873H19.573C20.5119 25.2873 20.5133 23.7109 19.573 23.7109ZM12.5243 13.4913C12.5243 13.9199 12.1907 14.2795 11.7929 14.2795C11.3828 14.2795 11.0449 13.898 11.0632 13.4569C11.0802 13.042 11.4068 12.7031 11.7929 12.7031C12.1904 12.7031 12.5243 13.063 12.5243 13.4913Z" fill="#053D4F"/>
</svg>
