<svg width="101" height="101" viewBox="0 0 101 101" fill="none" xmlns="http://www.w3.org/2000/svg">
<path d="M87.3966 25.4876C104.817 37.7705 105.043 62.9805 87.3966 75.5942C87.3966 77.4397 87.414 79.4244 87.3966 81.4092C87.3705 83.2982 87.5097 85.1959 87.3009 87.1459C85.8739 87.5637 84.5425 87.3461 83.2373 87.3809C81.993 87.4157 80.7487 87.3809 79.5044 87.3809H75.667C63.0586 104.974 38.007 104.861 25.5813 87.4941C21.7962 87.1546 17.9066 87.6246 13.8865 87.2155C13.6429 85.222 13.7908 83.333 13.7647 81.444C13.7386 79.5376 13.7647 77.6312 13.7647 75.542C13.1034 75.0196 12.3811 74.4799 11.685 73.9054C4.34095 67.8118 0.512304 59.9337 0.54711 50.4451C0.581916 40.7564 4.6107 32.8086 12.2332 26.7498C12.6857 26.3929 13.1382 26.0273 13.7125 25.5659V14.0839C14.3825 13.9707 14.922 13.8053 15.4615 13.8053C18.7767 13.7792 22.092 13.7966 25.5204 13.7966C31.7158 5.27434 40.0431 0.521355 50.6589 0.54747C61.179 0.573586 69.428 5.30916 75.58 13.7618C79.4609 13.8663 83.2634 13.727 87.1704 13.8489C87.5967 15.9381 87.3444 17.9142 87.3879 19.8728C87.4314 21.7705 87.3966 23.6769 87.3966 25.4789V25.4876Z" fill="#FFF4E1"/>
</svg>
