<svg width="155" height="147" viewBox="0 0 155 147" fill="none" xmlns="http://www.w3.org/2000/svg">
<path d="M152.283 2.97266H2.58203V143.707H152.283V2.97266Z" stroke="#E97704" stroke-width="5" stroke-dasharray="9.17 9.17"/>
<path d="M114.25 68.5869V89.8943C114.471 91.6933 114.257 93.5161 113.623 95.2261C112.989 96.9362 111.952 98.4894 110.589 99.7694C109.226 101.049 107.573 102.023 105.754 102.618C103.934 103.213 101.995 103.413 100.082 103.204H54.7674C52.8538 103.412 50.9149 103.211 49.0956 102.616C47.2763 102.021 45.6238 101.046 44.2616 99.7655C42.8995 98.485 41.863 96.9314 41.2297 95.2211C40.5964 93.5108 40.3827 91.688 40.6046 89.8891V54.3846C40.3827 52.5856 40.5964 50.7628 41.2297 49.0525C41.863 47.3422 42.8995 45.7886 44.2616 44.5081C45.6238 43.2275 47.2763 42.2531 49.0956 41.6577C50.9149 41.0624 52.8538 40.8615 54.7674 41.07H81.2098C81.9501 41.0855 82.6546 41.3728 83.1723 41.8705C83.6901 42.3682 83.98 43.0367 83.98 43.7328C83.98 44.429 83.6901 45.0974 83.1723 45.5951C82.6546 46.0928 81.9501 46.3801 81.2098 46.3956H54.7674C48.8115 46.3956 46.2694 48.7854 46.2694 54.3846V87.2269L55.8628 78.2081C56.5759 77.543 57.5397 77.1698 58.5442 77.1698C59.5486 77.1698 60.5124 77.543 61.2255 78.2081L64.7749 81.545C65.128 81.8703 65.6027 82.0525 66.097 82.0525C66.5914 82.0525 67.0661 81.8703 67.4192 81.545L86.0758 64.0071C86.7889 63.342 87.7526 62.9688 88.7571 62.9688C89.7616 62.9688 90.7254 63.342 91.4384 64.0071L108.585 80.1258V68.5869C108.577 68.2322 108.644 67.8796 108.783 67.5496C108.921 67.2196 109.129 66.919 109.392 66.6654C109.656 66.4118 109.971 66.2103 110.319 66.0727C110.667 65.9351 111.041 65.8643 111.418 65.8643C111.795 65.8643 112.169 65.9351 112.517 66.0727C112.864 66.2103 113.179 66.4118 113.443 66.6654C113.707 66.919 113.914 67.2196 114.053 67.5496C114.192 67.8796 114.259 68.2322 114.25 68.5869ZM62.2944 57.0519C61.0406 57.0552 59.8395 57.5262 58.9548 58.3614C58.0702 59.1966 57.5742 60.3278 57.576 61.5064C57.5778 62.6851 58.0771 63.8149 58.9642 64.6478C59.8514 65.4806 61.0539 65.9484 62.3077 65.9484C63.5614 65.9484 64.7639 65.4806 65.6511 64.6478C66.5383 63.8149 67.0376 62.6851 67.0393 61.5064C67.0411 60.3278 66.5452 59.1966 65.6605 58.3614C64.7758 57.5262 63.5747 57.0552 62.321 57.0519H62.2944ZM96.3044 49.9495H101.025V54.3872C101.016 54.7418 101.084 55.0945 101.222 55.4245C101.361 55.7544 101.568 56.055 101.832 56.3087C102.096 56.5623 102.411 56.7638 102.759 56.9014C103.106 57.0389 103.48 57.1098 103.857 57.1098C104.235 57.1098 104.608 57.0389 104.956 56.9014C105.304 56.7638 105.619 56.5623 105.883 56.3087C106.147 56.055 106.354 55.7544 106.492 55.4245C106.631 55.0945 106.698 54.7418 106.69 54.3872V49.9495H111.414C112.155 49.934 112.859 49.6467 113.377 49.149C113.895 48.6513 114.185 47.9828 114.185 47.2867C114.185 46.5905 113.895 45.9221 113.377 45.4244C112.859 44.9267 112.155 44.6394 111.414 44.6239H106.697V40.1836C106.705 39.8289 106.638 39.4762 106.499 39.1463C106.361 38.8163 106.154 38.5157 105.89 38.2621C105.626 38.0085 105.311 37.807 104.963 37.6694C104.615 37.5318 104.242 37.4609 103.864 37.4609C103.487 37.4609 103.113 37.5318 102.766 37.6694C102.418 37.807 102.103 38.0085 101.839 38.2621C101.575 38.5157 101.368 38.8163 101.229 39.1463C101.091 39.4762 101.023 39.8289 101.032 40.1836V44.6213H96.3044C95.5641 44.6368 94.8597 44.9241 94.3419 45.4218C93.8242 45.9194 93.5342 46.5879 93.5342 47.2841C93.5342 47.9802 93.8242 48.6487 94.3419 49.1463C94.8597 49.644 95.5641 49.9314 96.3044 49.9468V49.9495Z" fill="#E97704"/>
</svg>
