<svg width="159" height="151" viewBox="0 0 159 151" fill="none" xmlns="http://www.w3.org/2000/svg">
<path d="M156.417 3H2.51953V147.68H156.417V3Z" stroke="#212A53" stroke-width="5" stroke-dasharray="9.17 9.17"/>
<path d="M122.36 46.5852C121.216 46.0626 119.937 45.8571 118.674 45.9926C117.41 46.1282 116.214 46.5993 115.224 47.3507L103.691 56.0236V54.1638C103.955 52.0198 103.7 49.8473 102.946 47.809C102.191 45.7706 100.955 43.9191 99.3314 42.3932C97.7076 40.8672 95.7378 39.7063 93.5693 38.9973C91.4008 38.2883 89.0898 38.0496 86.8093 38.299H46.309C44.0289 38.0504 41.7185 38.2898 39.5508 38.9992C37.383 39.7086 35.4139 40.8696 33.7908 42.3955C32.1678 43.9213 30.9327 45.7725 30.1782 47.8104C29.4236 49.8484 29.169 52.0203 29.4334 54.1638V88.0071C29.169 90.1507 29.4236 92.3226 30.1782 94.3606C30.9327 96.3985 32.1678 98.2497 33.7908 99.7755C35.4139 101.301 37.383 102.462 39.5508 103.172C41.7185 103.881 44.0289 104.121 46.309 103.872H86.8093C89.0894 104.121 91.3997 103.881 93.5675 103.172C95.7353 102.462 97.7044 101.301 99.3275 99.7755C100.951 98.2497 102.186 96.3985 102.94 94.3606C103.695 92.3226 103.949 90.1507 103.685 88.0071V86.15L115.219 94.8229C116.407 95.7251 117.889 96.2175 119.416 96.2184C120.433 96.217 121.437 96.0018 122.354 95.5884C123.503 95.0732 124.473 94.2616 125.15 93.2482C125.827 92.2347 126.184 91.0612 126.179 89.8643V52.3067C126.184 51.1108 125.828 49.9382 125.152 48.9254C124.476 47.9125 123.507 47.1009 122.36 46.5852ZM96.9344 88.0163C96.9344 94.6874 93.9054 97.535 86.8093 97.535H46.309C39.2129 97.535 36.1839 94.6874 36.1839 88.0163V54.1638C36.1839 47.4928 39.2129 44.6452 46.309 44.6452H86.8093C93.9054 44.6452 96.9344 47.4928 96.9344 54.1638V88.0163ZM119.434 89.8775L103.684 78.0203V64.1468L119.434 52.3014V89.8775ZM81.1837 71.0848C81.1837 71.9262 80.8281 72.7331 80.1953 73.3281C79.5624 73.923 78.7041 74.2573 77.8091 74.2573H69.9337V81.661C69.9337 82.5025 69.5781 83.3096 68.9451 83.9047C68.3121 84.4997 67.4536 84.834 66.5585 84.834C65.6633 84.834 64.8048 84.4997 64.1718 83.9047C63.5388 83.3096 63.1832 82.5025 63.1832 81.661V74.2586H55.3092C54.414 74.2586 53.5555 73.9243 52.9225 73.3292C52.2896 72.7341 51.934 71.9271 51.934 71.0855C51.934 70.2439 52.2896 69.4368 52.9225 68.8418C53.5555 68.2467 54.414 67.9124 55.3092 67.9124H63.1846V60.5087C63.1846 59.6672 63.5402 58.8601 64.1732 58.265C64.8062 57.6699 65.6647 57.3356 66.5598 57.3356C67.455 57.3356 68.3135 57.6699 68.9465 58.265C69.5795 58.8601 69.9351 59.6672 69.9351 60.5087V67.9124H77.8105C78.7052 67.9127 79.5632 68.2471 80.1958 68.8421C80.8283 69.437 81.1837 70.2437 81.1837 71.0848Z" fill="#212A53"/>
</svg>
