<svg width="57" height="52" viewBox="0 0 57 52" fill="none" xmlns="http://www.w3.org/2000/svg">
<path d="M55.4167 29.25H47.5V39L44.3333 36.8367L41.1667 39V29.25H33.25C32.3792 29.25 31.6667 29.9813 31.6667 30.875V50.375C31.6667 51.2687 32.3792 52 33.25 52H55.4167C56.2875 52 57 51.2687 57 50.375V30.875C57 29.9813 56.2875 29.25 55.4167 29.25ZM17.4167 22.75H39.5833C40.4542 22.75 41.1667 22.0187 41.1667 21.125V1.625C41.1667 0.73125 40.4542 0 39.5833 0H31.6667V9.75L28.5 7.58672L25.3333 9.75V0H17.4167C16.5458 0 15.8333 0.73125 15.8333 1.625V21.125C15.8333 22.0187 16.5458 22.75 17.4167 22.75ZM23.75 29.25H15.8333V39L12.6667 36.8367L9.5 39V29.25H1.58333C0.7125 29.25 0 29.9813 0 30.875V50.375C0 51.2687 0.7125 52 1.58333 52H23.75C24.6208 52 25.3333 51.2687 25.3333 50.375V30.875C25.3333 29.9813 24.6208 29.25 23.75 29.25Z" fill="white"/>
</svg>
