<svg width="43" height="43" viewBox="0 0 43 43" fill="none" xmlns="http://www.w3.org/2000/svg">
<path d="M25.5382 34.0899C25.9317 34.4834 25.9317 35.1215 25.5382 35.5152L21.7863 39.2671C16.8091 44.2441 8.71054 44.2445 3.73298 39.2671C-1.24424 34.2897 -1.24424 26.1911 3.73298 21.2138L7.48497 17.4618C7.87851 17.0683 8.51662 17.0683 8.91026 17.4618L12.2359 20.7874C12.6294 21.181 12.6294 21.8191 12.2359 22.2127L8.48387 25.9646C6.12627 28.3223 6.12627 32.1585 8.48387 34.5162C10.8415 36.8738 14.6777 36.8739 17.0355 34.5162L20.7874 30.7643C21.1809 30.3707 21.819 30.3707 22.2126 30.7643L25.5382 34.0899ZM20.7874 12.2358C21.1809 12.6294 21.819 12.6294 22.2126 12.2358L25.9645 8.4839C28.3221 6.12604 32.1584 6.12621 34.5161 8.4839C36.8737 10.8416 36.8737 14.6777 34.5161 17.0354L30.7641 20.7873C30.3706 21.1809 30.3706 21.819 30.7641 22.2126L34.0897 25.5382C34.4833 25.9318 35.1214 25.9318 35.515 25.5382L39.267 21.7863C44.2443 16.8089 44.2443 8.71032 39.267 3.733C34.2896 -1.24425 26.1911 -1.24425 21.2137 3.733L17.4618 7.48491C17.0683 7.87846 17.0683 8.51657 17.4618 8.9102L20.7874 12.2358ZM40.5091 42.4097L42.4094 40.5094C43.1966 39.7222 43.1966 38.446 42.4094 37.6589L5.34128 0.590388C4.55409 -0.196796 3.27787 -0.196796 2.49078 0.590388L0.590386 2.49078C-0.196795 3.27797 -0.196795 4.55419 0.590386 5.34129L37.6586 42.4097C38.4458 43.1968 39.722 43.1968 40.5091 42.4097Z" fill="white"/>
</svg>
