<svg width="49" height="49" viewBox="0 0 49 49" fill="none" xmlns="http://www.w3.org/2000/svg">
<path d="M27.6613 2.40953V4.07887C27.6613 5.1615 28.3806 6.09894 29.4085 6.39024C37.0665 8.56001 42.6774 15.6831 42.6774 24.1488C42.6774 34.3387 34.5475 42.5868 24.5 42.5868C14.4541 42.5868 6.32262 34.3403 6.32262 24.1488C6.32262 15.6843 11.9325 8.56022 19.5913 6.39024C20.6194 6.09894 21.3387 5.1613 21.3387 4.07857V2.41033C21.3387 0.836181 19.8733 -0.310585 18.3705 0.0821251C7.76526 2.85304 -0.0598187 12.6456 0.000344562 24.2822C0.0714735 38.0158 11.0132 49.0289 24.5528 48.9999C38.0595 48.9711 49 37.8559 49 24.1488C49 12.5616 41.1817 2.82689 30.6042 0.0755114C29.1114 -0.31279 27.6613 0.846302 27.6613 2.40953Z" fill="white"/>
</svg>
