<svg width="55" height="44" viewBox="0 0 55 44" fill="none" xmlns="http://www.w3.org/2000/svg">
<path d="M4.31411 32.2781C4.51176 33.0086 5.26801 33.4468 5.99848 33.2492L24.5953 28.2648C25.3258 28.0672 25.7641 27.3109 25.5664 26.5804L21.2953 10.6391C21.0977 9.90858 20.3414 9.4703 19.611 9.66796L12.9766 11.4555L15.1078 19.4219L9.79691 20.8398L7.66567 12.8734L1.0227 14.6523C0.292234 14.85 -0.146047 15.6062 0.0516094 16.3367L4.31411 32.2781ZM33 0C31.4789 0 30.25 1.2289 30.25 2.75V30.5593L0.507078 38.6718C0.137547 38.775 -0.0772967 39.1531 0.0258282 39.514L1.10864 43.4929C1.21176 43.8625 1.58989 44.0773 1.95083 43.9742L35.7844 34.7445C35.9906 39.8836 40.1844 44 45.375 44C50.6945 44 55 39.6945 55 34.375V0H33ZM45.375 38.5C43.0977 38.5 41.25 36.6523 41.25 34.375C41.25 32.0976 43.0977 30.25 45.375 30.25C47.6524 30.25 49.5 32.0976 49.5 34.375C49.5 36.6523 47.6524 38.5 45.375 38.5Z" fill="white"/>
</svg>
