<svg width="31" height="22" viewBox="0 0 31 22" fill="none" xmlns="http://www.w3.org/2000/svg">
<path d="M25.019 5.612C25.1247 5.55422 25.2408 5.51782 25.3606 5.5049C25.4803 5.49197 25.6015 5.50276 25.7171 5.53665C25.8327 5.57055 25.9405 5.62688 26.0343 5.70243C26.1282 5.77799 26.2062 5.87128 26.264 5.977C26.3218 6.08271 26.3582 6.19877 26.3711 6.31855C26.384 6.43833 26.3732 6.55949 26.3393 6.67509C26.3055 6.7907 26.2491 6.8985 26.1736 6.99234C26.098 7.08618 26.0047 7.16422 25.899 7.222L15.816 12.722C15.6811 12.7958 15.5298 12.8345 15.376 12.8345C15.2222 12.8345 15.0709 12.7958 14.936 12.722L4.853 7.222C4.74729 7.16422 4.65399 7.08618 4.57843 6.99234C4.50288 6.8985 4.44655 6.7907 4.41265 6.67509C4.37876 6.55949 4.36797 6.43833 4.3809 6.31855C4.39382 6.19877 4.43022 6.08271 4.488 5.977C4.54578 5.87128 4.62382 5.77799 4.71766 5.70243C4.8115 5.62688 4.9193 5.57055 5.03491 5.53665C5.15051 5.50276 5.27167 5.49197 5.39145 5.5049C5.51123 5.51782 5.62729 5.55422 5.733 5.612L15.376 10.874L25.019 5.612ZM5.292 1.833C4.56265 1.833 3.86318 2.12273 3.34746 2.63846C2.83173 3.15418 2.542 3.85365 2.542 4.583V17.417C2.542 18.1463 2.83173 18.8458 3.34746 19.3615C3.86318 19.8773 4.56265 20.167 5.292 20.167H25.459C26.1883 20.167 26.8878 19.8773 27.4035 19.3615C27.9193 18.8458 28.209 18.1463 28.209 17.417V4.583C28.209 3.85365 27.9193 3.15418 27.4035 2.63846C26.8878 2.12273 26.1883 1.833 25.459 1.833H5.292ZM5.292 0H25.459C26.6745 0 27.8402 0.48285 28.6997 1.34233C29.5592 2.20181 30.042 3.36751 30.042 4.583V17.417C30.042 18.6325 29.5592 19.7982 28.6997 20.6577C27.8402 21.5171 26.6745 22 25.459 22H5.292C4.07651 22 2.91081 21.5171 2.05133 20.6577C1.19185 19.7982 0.709 18.6325 0.709 17.417L0.709 4.583C0.709 3.36751 1.19185 2.20181 2.05133 1.34233C2.91081 0.48285 4.07651 0 5.292 0Z" fill="#FF9900"/>
</svg>
