<svg width="25" height="28" viewBox="0 0 25 28" fill="none" xmlns="http://www.w3.org/2000/svg">
<path d="M24.298 12.5599L20.698 9.35989V4.44389L16.574 0.316895H5.40099V7.51689H1.35099C0.99311 7.51742 0.650042 7.65983 0.396982 7.91288C0.143923 8.16594 0.00152084 8.50902 0.000991821 8.86689V25.9669C0.00152084 26.3248 0.143923 26.6678 0.396982 26.9209C0.650042 27.174 0.99311 27.3164 1.35099 27.3169H24.751V13.5689C24.7509 13.3783 24.7106 13.1898 24.6325 13.0159C24.5544 12.842 24.4404 12.6866 24.298 12.5599ZM5.40099 25.5169H1.80099V9.31689H5.40099V25.5169ZM15.301 2.11689H15.828L18.901 5.18989V5.71689H15.301V2.11689ZM7.20099 2.11689H13.501V7.51689H18.901V11.5669H7.20099V2.11689ZM22.951 25.5169H7.20099V13.3669H20.701V11.7669L22.951 13.7669V25.5169Z" fill="#FF9900"/>
<path d="M9.879 18.73H11.73V20.581H9.879V18.73Z" fill="#FF9900"/>
<path d="M13.471 18.73H15.322V20.581H13.471V18.73Z" fill="#FF9900"/>
<path d="M9.879 22.2271H11.73V24.0781H9.879V22.2271Z" fill="#FF9900"/>
<path d="M13.471 22.2271H15.322V24.0781H13.471V22.2271Z" fill="#FF9900"/>
<path d="M17.063 18.73H18.914V20.581H17.063V18.73Z" fill="#FF9900"/>
<path d="M17.063 22.2271H18.914V24.0781H17.063V22.2271Z" fill="#FF9900"/>
<path d="M9.741 15.1367H18.996V16.9877H9.741V15.1367Z" fill="#FF9900"/>
</svg>
