<svg width="22" height="22" viewBox="0 0 22 22" fill="none" xmlns="http://www.w3.org/2000/svg">
<path d="M12.0312 10.6562V18.5625C12.0312 18.836 11.9226 19.0983 11.7292 19.2917C11.5358 19.4851 11.2735 19.5938 11 19.5938C10.7265 19.5938 10.4642 19.4851 10.2708 19.2917C10.0774 19.0983 9.96875 18.836 9.96875 18.5625V10.6562C9.96875 10.3827 10.0774 10.1204 10.2708 9.92705C10.4642 9.73365 10.7265 9.625 11 9.625C11.2735 9.625 11.5358 9.73365 11.7292 9.92705C11.9226 10.1204 12.0312 10.3827 12.0312 10.6562ZM17.1875 16.5C16.914 16.5 16.6517 16.6087 16.4583 16.802C16.2649 16.9954 16.1562 17.2577 16.1562 17.5312V18.5625C16.1562 18.836 16.2649 19.0983 16.4583 19.2917C16.6517 19.4851 16.914 19.5938 17.1875 19.5938C17.461 19.5938 17.7233 19.4851 17.9167 19.2917C18.1101 19.0983 18.2188 18.836 18.2188 18.5625V17.5312C18.2188 17.2577 18.1101 16.9954 17.9167 16.802C17.7233 16.6087 17.461 16.5 17.1875 16.5ZM19.25 13.0625H18.2188V3.4375C18.2188 3.164 18.1101 2.90169 17.9167 2.7083C17.7233 2.5149 17.461 2.40625 17.1875 2.40625C16.914 2.40625 16.6517 2.5149 16.4583 2.7083C16.2649 2.90169 16.1562 3.164 16.1562 3.4375V13.0625H15.125C14.8515 13.0625 14.5892 13.1712 14.3958 13.3645C14.2024 13.5579 14.0938 13.8202 14.0938 14.0938C14.0938 14.3673 14.2024 14.6296 14.3958 14.823C14.5892 15.0163 14.8515 15.125 15.125 15.125H19.25C19.5235 15.125 19.7858 15.0163 19.9792 14.823C20.1726 14.6296 20.2812 14.3673 20.2812 14.0938C20.2812 13.8202 20.1726 13.5579 19.9792 13.3645C19.7858 13.1712 19.5235 13.0625 19.25 13.0625ZM4.8125 13.75C4.539 13.75 4.27669 13.8587 4.0833 14.052C3.8899 14.2454 3.78125 14.5077 3.78125 14.7812V18.5625C3.78125 18.836 3.8899 19.0983 4.0833 19.2917C4.27669 19.4851 4.539 19.5938 4.8125 19.5938C5.086 19.5938 5.34831 19.4851 5.5417 19.2917C5.7351 19.0983 5.84375 18.836 5.84375 18.5625V14.7812C5.84375 14.5077 5.7351 14.2454 5.5417 14.052C5.34831 13.8587 5.086 13.75 4.8125 13.75ZM6.875 10.3125H5.84375V3.4375C5.84375 3.164 5.7351 2.90169 5.5417 2.7083C5.34831 2.5149 5.086 2.40625 4.8125 2.40625C4.539 2.40625 4.27669 2.5149 4.0833 2.7083C3.8899 2.90169 3.78125 3.164 3.78125 3.4375V10.3125H2.75C2.4765 10.3125 2.21419 10.4211 2.0208 10.6145C1.8274 10.8079 1.71875 11.0702 1.71875 11.3438C1.71875 11.6173 1.8274 11.8796 2.0208 12.073C2.21419 12.2663 2.4765 12.375 2.75 12.375H6.875C7.1485 12.375 7.41081 12.2663 7.6042 12.073C7.7976 11.8796 7.90625 11.6173 7.90625 11.3438C7.90625 11.0702 7.7976 10.8079 7.6042 10.6145C7.41081 10.4211 7.1485 10.3125 6.875 10.3125ZM13.0625 6.1875H12.0312V3.4375C12.0312 3.164 11.9226 2.90169 11.7292 2.7083C11.5358 2.5149 11.2735 2.40625 11 2.40625C10.7265 2.40625 10.4642 2.5149 10.2708 2.7083C10.0774 2.90169 9.96875 3.164 9.96875 3.4375V6.1875H8.9375C8.664 6.1875 8.40169 6.29615 8.2083 6.48955C8.0149 6.68294 7.90625 6.94525 7.90625 7.21875C7.90625 7.49225 8.0149 7.75456 8.2083 7.94795C8.40169 8.14135 8.664 8.25 8.9375 8.25H13.0625C13.336 8.25 13.5983 8.14135 13.7917 7.94795C13.9851 7.75456 14.0938 7.49225 14.0938 7.21875C14.0938 6.94525 13.9851 6.68294 13.7917 6.48955C13.5983 6.29615 13.336 6.1875 13.0625 6.1875Z" fill="#DED8CC"/>
</svg>
