<svg width="29" height="29" viewBox="0 0 29 29" fill="none" xmlns="http://www.w3.org/2000/svg">
<path d="M22.1277 28.1626C20.5272 28.1626 18.9922 27.5268 17.8605 26.395C16.7287 25.2633 16.0929 23.7283 16.0929 22.1277C16.0929 20.5272 16.7287 18.9922 17.8605 17.8605C18.9922 16.7287 20.5272 16.0929 22.1277 16.0929C23.7283 16.0929 25.2633 16.7287 26.395 17.8605C27.5268 18.9922 28.1626 20.5272 28.1626 22.1277C28.1626 23.7283 27.5268 25.2633 26.395 26.395C25.2633 27.5268 23.7283 28.1626 22.1277 28.1626ZM6.03484 28.1626C4.4343 28.1626 2.89931 27.5268 1.76756 26.395C0.635812 25.2633 0 23.7283 0 22.1277C0 20.5272 0.635812 18.9922 1.76756 17.8605C2.89931 16.7287 4.4343 16.0929 6.03484 16.0929C7.63538 16.0929 9.17036 16.7287 10.3021 17.8605C11.4339 18.9922 12.0697 20.5272 12.0697 22.1277C12.0697 23.7283 11.4339 25.2633 10.3021 26.395C9.17036 27.5268 7.63538 28.1626 6.03484 28.1626ZM22.1277 12.0697C20.5272 12.0697 18.9922 11.4339 17.8605 10.3021C16.7287 9.17036 16.0929 7.63538 16.0929 6.03484C16.0929 4.4343 16.7287 2.89931 17.8605 1.76756C18.9922 0.635812 20.5272 0 22.1277 0C23.7283 0 25.2633 0.635812 26.395 1.76756C27.5268 2.89931 28.1626 4.4343 28.1626 6.03484C28.1626 7.63538 27.5268 9.17036 26.395 10.3021C25.2633 11.4339 23.7283 12.0697 22.1277 12.0697ZM6.03484 12.0697C4.4343 12.0697 2.89931 11.4339 1.76756 10.3021C0.635812 9.17036 0 7.63538 0 6.03484C0 4.4343 0.635812 2.89931 1.76756 1.76756C2.89931 0.635812 4.4343 0 6.03484 0C7.63538 0 9.17036 0.635812 10.3021 1.76756C11.4339 2.89931 12.0697 4.4343 12.0697 6.03484C12.0697 7.63538 11.4339 9.17036 10.3021 10.3021C9.17036 11.4339 7.63538 12.0697 6.03484 12.0697Z" fill="#DED8CC"/>
</svg>
