<svg width="30" height="36" viewBox="0 0 30 36" fill="none" xmlns="http://www.w3.org/2000/svg">
<path d="M12.154 8.69239C10.9671 8.66676 9.79938 8.9953 8.79995 9.63611C7.80052 10.2769 7.01465 11.2009 6.5426 12.2903C6.07055 13.3796 5.93373 14.5849 6.14958 15.7523C6.36544 16.9198 6.92418 17.9964 7.75453 18.845C8.58489 19.6935 9.6492 20.2754 10.8117 20.5165C11.9742 20.7576 13.1821 20.6469 14.2814 20.1985C15.3807 19.7502 16.3216 18.9845 16.9839 17.9992C17.6462 17.0139 17.9999 15.8536 18 14.6664C18.0168 13.099 17.4104 11.5891 16.3141 10.4688C15.2178 9.34853 13.7214 8.70953 12.154 8.69239Z" fill="#FF9900"/>
<path d="M24.029 13.9749C23.336 13.9552 22.6491 13.8395 21.988 13.6309V14.2249C21.988 18.4579 19.519 22.2249 17.713 24.9739L17.346 25.5269C15.6956 28.0174 13.9144 30.4188 12.01 32.7209C10.81 31.2299 8.429 28.2209 6.674 25.5269L6.327 24.9329C4.521 22.1809 2.042 18.4169 2.042 14.1839C2.04152 12.4416 2.48592 10.728 3.3331 9.20547C4.18028 7.68296 5.40217 6.40199 6.883 5.48391C8.34734 4.58322 10.0232 4.08431 11.7417 4.03744C13.4602 3.99057 15.1607 4.39738 16.672 5.21691C16.7531 4.50095 16.9317 3.79944 17.203 3.13191C15.3752 2.22798 13.344 1.81456 11.3083 1.9322C9.27262 2.04983 7.30247 2.69447 5.591 3.80291C3.85968 4.9316 2.4402 6.47781 1.46332 8.29911C0.486436 10.1204 -0.0164413 12.1582 0.00100345 14.2249C0.00100345 19.0939 2.674 23.1699 4.633 26.1419L4.99 26.6839C6.93666 29.5676 9.02731 32.3515 11.254 35.0249L12.029 35.9529L12.804 35.0249C15.0304 32.3513 17.121 29.5674 19.068 26.6839L19.425 26.1309C21.374 23.1599 24.047 19.0929 24.047 14.2249C24.036 14.142 24.0299 14.0585 24.029 13.9749Z" fill="#FF9900"/>
<path d="M24.263 11.3781C27.0802 11.3781 29.364 9.04421 29.364 6.16515C29.364 3.28609 27.0802 0.952148 24.263 0.952148C21.4458 0.952148 19.162 3.28609 19.162 6.16515C19.162 9.04421 21.4458 11.3781 24.263 11.3781Z" fill="#FF9900"/>
</svg>
