<svg width="218" height="217" viewBox="0 0 218 217" fill="none" xmlns="http://www.w3.org/2000/svg">
<path d="M210.76 77.1368H166.258V49.588C166.258 46.077 163.412 43.2305 159.901 43.2305H138.552C141.865 34.8247 141.456 25.3085 137.113 16.9972C131.756 6.74307 121.105 0.179657 109.537 0.00376753C97.2965 -0.182293 86.2291 6.5354 80.7422 17.4405C76.6137 25.6459 76.2759 34.9743 79.5305 43.2309H58.1818C54.6708 43.2309 51.8243 46.0774 51.8243 49.5884V77.1373H7.32228C3.81128 77.1373 0.964844 79.9837 0.964844 83.4947V210.643C0.964844 214.154 3.81128 217.001 7.32228 217.001H210.76C214.271 217.001 217.118 214.154 217.118 210.643V83.4943C217.118 79.9833 214.271 77.1368 210.76 77.1368ZM51.8243 204.286H13.6797V89.8517H51.8243V204.286ZM92.1 23.1554C95.3897 16.6179 101.723 12.7148 109.041 12.7148C116.36 12.7148 122.693 16.6179 125.983 23.1554C129.272 29.693 128.632 37.1049 124.271 42.9817L109.041 63.5023L93.8122 42.9817C89.4506 37.1049 88.8106 29.6934 92.1 23.1554ZM119.637 204.286H98.4455V183.094H119.637V204.286ZM153.543 204.286H132.352V176.737C132.352 173.226 129.505 170.379 125.994 170.379H92.0881C88.5771 170.379 85.7307 173.226 85.7307 176.737V204.286H64.5392V55.9454H87.5989L103.936 77.9586C106.478 81.3836 111.604 81.3836 114.146 77.9586L130.483 55.9454H153.543V204.286ZM204.403 204.286H166.258V89.8517H204.403V204.286Z" fill="#E97704"/>
<path d="M185.33 115.281C188.841 115.281 191.687 112.435 191.687 108.924C191.687 105.413 188.841 102.566 185.33 102.566C181.819 102.566 178.973 105.413 178.973 108.924C178.973 112.435 181.819 115.281 185.33 115.281Z" fill="#E97704"/>
<path d="M185.33 140.711C188.841 140.711 191.687 137.865 191.687 134.354C191.687 130.842 188.841 127.996 185.33 127.996C181.819 127.996 178.973 130.842 178.973 134.354C178.973 137.865 181.819 140.711 185.33 140.711Z" fill="#E97704"/>
<path d="M185.33 166.141C188.841 166.141 191.687 163.294 191.687 159.783C191.687 156.272 188.841 153.426 185.33 153.426C181.819 153.426 178.973 156.272 178.973 159.783C178.973 163.294 181.819 166.141 185.33 166.141Z" fill="#E97704"/>
<path d="M185.33 191.57C188.841 191.57 191.687 188.724 191.687 185.213C191.687 181.702 188.841 178.855 185.33 178.855C181.819 178.855 178.973 181.702 178.973 185.213C178.973 188.724 181.819 191.57 185.33 191.57Z" fill="#E97704"/>
<path d="M134.471 106.805C137.982 106.805 140.828 103.958 140.828 100.447C140.828 96.9362 137.982 94.0898 134.471 94.0898C130.96 94.0898 128.113 96.9362 128.113 100.447C128.113 103.958 130.96 106.805 134.471 106.805Z" fill="#E97704"/>
<path d="M134.471 132.234C137.982 132.234 140.828 129.388 140.828 125.877C140.828 122.366 137.982 119.52 134.471 119.52C130.96 119.52 128.113 122.366 128.113 125.877C128.113 129.388 130.96 132.234 134.471 132.234Z" fill="#E97704"/>
<path d="M134.471 157.664C137.982 157.664 140.828 154.818 140.828 151.307C140.828 147.796 137.982 144.949 134.471 144.949C130.96 144.949 128.113 147.796 128.113 151.307C128.113 154.818 130.96 157.664 134.471 157.664Z" fill="#E97704"/>
<path d="M83.6113 106.805C87.1225 106.805 89.9688 103.958 89.9688 100.447C89.9688 96.9362 87.1225 94.0898 83.6113 94.0898C80.1002 94.0898 77.2539 96.9362 77.2539 100.447C77.2539 103.958 80.1002 106.805 83.6113 106.805Z" fill="#E97704"/>
<path d="M83.6113 132.234C87.1225 132.234 89.9688 129.388 89.9688 125.877C89.9688 122.366 87.1225 119.52 83.6113 119.52C80.1002 119.52 77.2539 122.366 77.2539 125.877C77.2539 129.388 80.1002 132.234 83.6113 132.234Z" fill="#E97704"/>
<path d="M83.6113 157.664C87.1225 157.664 89.9688 154.818 89.9688 151.307C89.9688 147.796 87.1225 144.949 83.6113 144.949C80.1002 144.949 77.2539 147.796 77.2539 151.307C77.2539 154.818 80.1002 157.664 83.6113 157.664Z" fill="#E97704"/>
<path d="M109.041 106.805C112.552 106.805 115.398 103.958 115.398 100.447C115.398 96.9362 112.552 94.0898 109.041 94.0898C105.53 94.0898 102.684 96.9362 102.684 100.447C102.684 103.958 105.53 106.805 109.041 106.805Z" fill="#E97704"/>
<path d="M134.471 81.375C137.982 81.375 140.828 78.5287 140.828 75.0176C140.828 71.5065 137.982 68.6602 134.471 68.6602C130.96 68.6602 128.113 71.5065 128.113 75.0176C128.113 78.5287 130.96 81.375 134.471 81.375Z" fill="#E97704"/>
<path d="M83.6113 81.375C87.1225 81.375 89.9688 78.5287 89.9688 75.0176C89.9688 71.5065 87.1225 68.6602 83.6113 68.6602C80.1002 68.6602 77.2539 71.5065 77.2539 75.0176C77.2539 78.5287 80.1002 81.375 83.6113 81.375Z" fill="#E97704"/>
<path d="M109.041 132.234C112.552 132.234 115.398 129.388 115.398 125.877C115.398 122.366 112.552 119.52 109.041 119.52C105.53 119.52 102.684 122.366 102.684 125.877C102.684 129.388 105.53 132.234 109.041 132.234Z" fill="#E97704"/>
<path d="M109.041 157.664C112.552 157.664 115.398 154.818 115.398 151.307C115.398 147.796 112.552 144.949 109.041 144.949C105.53 144.949 102.684 147.796 102.684 151.307C102.684 154.818 105.53 157.664 109.041 157.664Z" fill="#E97704"/>
<path d="M32.752 115.281C36.2631 115.281 39.1094 112.435 39.1094 108.924C39.1094 105.413 36.2631 102.566 32.752 102.566C29.2409 102.566 26.3945 105.413 26.3945 108.924C26.3945 112.435 29.2409 115.281 32.752 115.281Z" fill="#E97704"/>
<path d="M32.752 140.711C36.2631 140.711 39.1094 137.865 39.1094 134.354C39.1094 130.842 36.2631 127.996 32.752 127.996C29.2409 127.996 26.3945 130.842 26.3945 134.354C26.3945 137.865 29.2409 140.711 32.752 140.711Z" fill="#E97704"/>
<path d="M32.752 166.141C36.2631 166.141 39.1094 163.294 39.1094 159.783C39.1094 156.272 36.2631 153.426 32.752 153.426C29.2409 153.426 26.3945 156.272 26.3945 159.783C26.3945 163.294 29.2409 166.141 32.752 166.141Z" fill="#E97704"/>
<path d="M32.752 191.57C36.2631 191.57 39.1094 188.724 39.1094 185.213C39.1094 181.702 36.2631 178.855 32.752 178.855C29.2409 178.855 26.3945 181.702 26.3945 185.213C26.3945 188.724 29.2409 191.57 32.752 191.57Z" fill="#E97704"/>
<path d="M109.041 38.1446C112.552 38.1446 115.398 35.2982 115.398 31.7871C115.398 28.276 112.552 25.4297 109.041 25.4297C105.53 25.4297 102.684 28.276 102.684 31.7871C102.684 35.2982 105.53 38.1446 109.041 38.1446Z" fill="#E97704"/>
</svg>
