<svg width="236" height="236" viewBox="0 0 236 236" fill="none" xmlns="http://www.w3.org/2000/svg">
<path fill-rule="evenodd" clip-rule="evenodd" d="M118 236C86.6562 236 56.6953 223.555 34.5703 201.43C12.4453 179.305 0 149.344 0 118C0 86.6562 12.4453 56.6953 34.5703 34.5703C56.6953 12.4453 86.6562 0 118 0C149.344 0 179.305 12.4453 201.43 34.5703C223.555 56.6953 236 86.6562 236 118C236 149.344 223.555 179.305 201.43 201.43C179.305 223.555 149.344 236 118 236ZM118 5.53125C55.7734 5.53125 5.53125 55.7734 5.53125 118C5.53125 180.227 55.7734 230.469 118 230.469C180.227 230.469 230.469 180.227 230.469 118C230.469 55.7734 180.227 5.53125 118 5.53125Z" fill="#EEBA7F"/>
<path fill-rule="evenodd" clip-rule="evenodd" d="M118 221.711C90.3438 221.711 64.0703 211.109 44.7109 191.289C24.8906 171.93 14.2891 145.656 14.2891 118C14.2891 90.3438 24.8906 64.0703 44.7109 44.7109C64.0703 24.8906 90.3438 14.2891 118 14.2891C145.656 14.2891 171.93 24.8906 191.289 44.7109C211.109 64.0703 221.711 90.3438 221.711 118C221.711 145.656 211.109 171.93 191.289 191.289C171.93 211.109 145.656 221.711 118 221.711ZM118 19.8203C64.0703 19.8203 19.8203 64.0703 19.8203 118C19.8203 171.93 64.0703 216.18 118 216.18C171.93 216.18 216.18 171.93 216.18 118C216.18 64.0703 171.93 19.8203 118 19.8203Z" fill="#EEBA7F"/>
<path fill-rule="evenodd" clip-rule="evenodd" d="M183.915 197.281C183.454 197.281 182.532 196.82 182.071 196.359L39.6416 53.9297C38.7197 53.0078 38.7197 51.1641 39.6416 50.2422C41.0244 48.3984 42.8682 46.5547 44.7119 44.7109C46.5557 42.8672 48.3994 41.0234 50.2432 39.6406C51.165 38.7188 53.0088 38.7188 53.9307 39.6406L196.36 182.07C197.282 182.992 197.282 184.836 196.36 185.758C194.978 187.602 193.134 189.445 191.29 191.289C189.446 193.133 187.603 194.977 185.759 196.359C185.298 196.82 184.837 197.281 183.915 197.281ZM45.6338 51.625L184.376 190.367C185.298 189.445 186.22 188.523 187.603 187.602C188.524 186.219 189.446 185.297 190.368 184.375L51.626 45.6328C50.7041 46.5547 49.7822 47.4766 48.3994 48.3984C47.4775 49.7812 46.5557 50.7031 45.6338 51.625Z" fill="#EEBA7F"/>
<path fill-rule="evenodd" clip-rule="evenodd" d="M180.688 135.055H142.43C140.586 135.055 139.664 133.672 139.664 132.289C139.664 130.445 140.586 129.523 142.43 129.523H174.234C170.086 123.992 168.242 118.461 169.164 112.93C169.625 108.32 171.469 104.172 173.773 101.867H109.242C107.398 101.867 106.477 100.484 106.477 99.1016C106.477 97.2578 107.398 96.3359 109.242 96.3359H180.688H182.07C182.07 96.7969 182.531 96.7969 182.531 97.2578C182.992 97.2578 182.992 97.7188 182.992 98.1797C183.453 98.6406 183.453 98.6406 183.453 99.1016C183.453 99.5625 182.992 100.023 182.992 100.023C182.992 100.484 182.531 100.945 182.07 100.945V101.406C181.609 101.406 175.156 106.016 174.695 113.391C173.773 118.461 176.539 124.453 182.531 129.984C182.531 130.445 182.992 130.906 182.992 130.906C182.992 131.367 183.453 131.828 183.453 131.828V132.289C183.453 132.289 182.992 132.75 182.992 133.211C182.992 133.672 182.531 133.672 182.531 134.133C182.07 134.133 182.07 134.594 181.609 134.594C181.148 134.594 181.148 135.055 180.688 135.055ZM121.688 135.055H57.1562C49.7812 135.055 43.7891 128.602 43.7891 121.227V109.703C43.7891 102.328 49.7812 96.3359 57.1562 96.3359H88.9609C90.3438 96.3359 91.7266 97.2578 91.7266 99.1016C91.7266 100.484 90.3438 101.867 88.9609 101.867H57.1562C52.5469 101.867 49.3203 105.094 49.3203 109.703V121.227C49.3203 125.836 52.5469 129.523 57.1562 129.523H121.688C123.531 129.523 124.453 130.445 124.453 132.289C124.453 133.672 123.531 135.055 121.688 135.055Z" fill="#EEBA7F"/>
<path fill-rule="evenodd" clip-rule="evenodd" d="M193.133 176.539H184.375C182.531 176.539 181.609 175.617 181.609 173.773C181.609 172.391 182.531 171.008 184.375 171.008H187.141C180.227 161.328 181.148 151.648 182.992 144.734C184.375 140.586 186.219 137.359 188.062 135.055H142.43C140.586 135.055 139.664 133.672 139.664 132.289C139.664 130.445 140.586 129.523 142.43 129.523H193.133H193.594H194.055C194.516 129.523 194.977 129.523 194.977 129.984C195.438 130.445 195.898 130.445 195.898 130.906V131.828V132.289V133.211L195.438 133.672V134.133C194.516 135.055 177.461 154.414 195.438 171.93C195.438 172.391 195.898 172.391 195.898 172.852V173.773V174.234V175.156C195.898 175.156 195.438 175.617 195.438 176.078C194.977 176.078 194.516 176.539 194.516 176.539C194.055 176.539 193.594 176.539 193.133 176.539ZM163.633 176.539H61.3047C49.3203 176.539 40.1016 167.32 40.1016 155.797V150.266C40.1016 138.742 49.3203 129.523 61.3047 129.523H121.688C123.531 129.523 124.453 130.445 124.453 132.289C124.453 133.672 123.531 135.055 121.688 135.055H61.3047C52.5469 135.055 45.6328 141.969 45.6328 150.266V155.797C45.6328 164.094 52.5469 171.008 61.3047 171.008H163.633C165.477 171.008 166.398 172.391 166.398 173.773C166.398 175.617 165.477 176.539 163.633 176.539Z" fill="#EEBA7F"/>
<path fill-rule="evenodd" clip-rule="evenodd" d="M190.367 101.867H109.242C107.398 101.867 106.477 100.484 106.477 99.1016C106.477 97.2578 107.398 96.3359 109.242 96.3359H184.375C180.688 90.8047 178.844 85.2734 178.844 79.7422C179.305 73.2891 182.07 68.2188 184.375 64.9922H72.3672C70.5234 64.9922 69.6016 63.6094 69.6016 62.2266C69.6016 60.3828 70.5234 59.4609 72.3672 59.4609H190.367H190.828H191.75C192.211 59.4609 192.211 59.9219 192.672 60.3828C193.133 60.8438 193.133 60.8438 193.133 61.3047V61.7656V62.2266V63.1484C192.672 63.6094 192.672 63.6094 192.211 64.0703C192.211 64.5312 184.836 70.9844 184.375 79.7422C184.375 85.7344 186.68 91.2656 192.672 96.7969C192.672 97.2578 193.133 97.7188 193.133 97.7188V99.1016V100.023C193.133 100.484 192.672 100.484 192.672 100.945C192.211 100.945 191.75 101.406 191.75 101.406C191.289 101.406 190.828 101.867 190.367 101.867ZM88.9609 101.867H59.4609C49.3203 101.867 40.5625 93.1094 40.5625 82.5078V78.3594C40.5625 70.5234 45.1719 63.6094 52.0859 60.8438C53.4688 60.3828 55.3125 60.8438 55.7734 62.2266C56.2344 63.6094 55.7734 65.4531 54.3906 65.9141C49.3203 68.2188 46.0938 72.8281 46.0938 78.3594V82.5078C46.0938 90.3438 52.0859 96.3359 59.4609 96.3359H88.9609C90.3438 96.3359 91.7266 97.2578 91.7266 99.1016C91.7266 100.484 90.3438 101.867 88.9609 101.867Z" fill="#EEBA7F"/>
<path fill-rule="evenodd" clip-rule="evenodd" d="M183.453 75.1328H86.1953C84.8125 75.1328 83.4297 74.2109 83.4297 72.3672C83.4297 70.9844 84.8125 69.6016 86.1953 69.6016H183.453C184.836 69.6016 186.219 70.9844 186.219 72.3672C186.219 74.2109 184.836 75.1328 183.453 75.1328Z" fill="#EEBA7F"/>
<path fill-rule="evenodd" clip-rule="evenodd" d="M99.5625 90.8047C99.1016 90.8047 98.6406 90.8047 98.6406 90.8047C97.7188 90.3438 96.7969 89.4219 96.7969 88.0391V72.3672C96.7969 70.9844 98.1797 69.6016 99.5625 69.6016H112.008C113.391 69.6016 114.773 70.9844 114.773 72.3672V88.0391C114.773 89.4219 114.312 90.3438 113.391 90.8047C112.469 91.2656 111.086 91.2656 110.625 90.8047L106.016 87.5781L101.406 90.8047C100.945 90.8047 100.484 90.8047 99.5625 90.8047ZM106.016 81.5859C106.477 81.5859 106.938 81.5859 107.398 82.0469L109.242 82.9688V75.1328H102.328V82.9688L104.172 82.0469C104.633 81.5859 105.555 81.5859 106.016 81.5859Z" fill="#EEBA7F"/>
<path fill-rule="evenodd" clip-rule="evenodd" d="M187.602 143.352H150.727C149.344 143.352 147.961 141.969 147.961 140.586C147.961 139.203 149.344 137.82 150.727 137.82H187.602C189.445 137.82 190.367 139.203 190.367 140.586C190.367 141.969 189.445 143.352 187.602 143.352ZM130.445 143.352H90.8047C88.9609 143.352 88.0391 141.969 88.0391 140.586C88.0391 139.203 88.9609 137.82 90.8047 137.82H130.445C131.828 137.82 133.211 139.203 133.211 140.586C133.211 141.969 131.828 143.352 130.445 143.352Z" fill="#EEBA7F"/>
<path fill-rule="evenodd" clip-rule="evenodd" d="M116.617 159.023C116.156 159.023 115.695 159.023 115.234 158.562L110.625 155.797L106.016 158.562C105.094 159.484 103.711 159.484 102.789 159.023C101.867 158.562 101.406 157.641 101.406 156.258V140.586C101.406 139.203 102.789 137.82 104.172 137.82H116.617C118 137.82 119.383 139.203 119.383 140.586V156.258C119.383 157.641 118.922 158.562 118 159.023C117.539 159.023 117.078 159.023 116.617 159.023ZM110.625 149.805C111.086 149.805 111.547 149.805 112.008 150.266L113.852 151.188V143.352H106.938V151.188L108.781 150.266C109.242 149.805 109.703 149.805 110.625 149.805Z" fill="#EEBA7F"/>
<path fill-rule="evenodd" clip-rule="evenodd" d="M187.141 167.781H175.156C173.773 167.781 172.391 166.859 172.391 165.016C172.391 163.633 173.773 162.25 175.156 162.25H187.141C188.523 162.25 189.906 163.633 189.906 165.016C189.906 166.859 188.523 167.781 187.141 167.781ZM154.875 167.781H94.9531C93.1094 167.781 92.1875 166.859 92.1875 165.016C92.1875 163.633 93.1094 162.25 94.9531 162.25H154.875C156.258 162.25 157.641 163.633 157.641 165.016C157.641 166.859 156.258 167.781 154.875 167.781Z" fill="#EEBA7F"/>
<path fill-rule="evenodd" clip-rule="evenodd" d="M161.789 112.93H120.305C118.461 112.93 117.539 111.547 117.539 110.164C117.539 108.32 118.461 107.398 120.305 107.398H161.789C163.633 107.398 164.555 108.32 164.555 110.164C164.555 111.547 163.633 112.93 161.789 112.93ZM100.023 112.93H64.9922C63.1484 112.93 62.2266 111.547 62.2266 110.164C62.2266 108.32 63.1484 107.398 64.9922 107.398H100.023C101.406 107.398 102.789 108.32 102.789 110.164C102.789 111.547 101.406 112.93 100.023 112.93Z" fill="#EEBA7F"/>
<path fill-rule="evenodd" clip-rule="evenodd" d="M161.789 123.531H131.367C129.523 123.531 128.602 122.609 128.602 120.766C128.602 119.383 129.523 118 131.367 118H161.789C163.633 118 164.555 119.383 164.555 120.766C164.555 122.609 163.633 123.531 161.789 123.531ZM110.625 123.531H64.9922C63.1484 123.531 62.2266 122.609 62.2266 120.766C62.2266 119.383 63.1484 118 64.9922 118H110.625C112.469 118 113.391 119.383 113.391 120.766C113.391 122.609 112.469 123.531 110.625 123.531Z" fill="#EEBA7F"/>
</svg>
