<svg width="172" height="172" viewBox="0 0 172 172" fill="none" xmlns="http://www.w3.org/2000/svg">
<path d="M136.386 166.957H141.426V171.999H136.386V166.957Z" fill="#E97704"/>
<path d="M169.48 96.1551H172V80.9579H153.077L169.886 64.1382L159.234 53.4802L157.453 55.2627C152.601 59.8671 145.695 52.9327 150.296 48.1012L152.077 46.3184L141.632 35.8674L139.85 37.6499C135.001 42.2522 128.1 35.3289 132.693 30.4883L134.475 28.7055L123.683 17.9075L121.901 19.69C117.055 24.291 110.148 17.371 114.744 12.5285L116.526 10.7456L105.786 0L24.8765 80.9579H0V172H131.347V166.958H5.03906V86.0003H55.7431V80.9583H32.0034L105.786 7.13061L109.622 10.9687C107.289 14.7917 107.94 20.1247 111.178 23.2556C114.502 26.5811 119.585 27.1001 123.458 24.8134L127.573 28.9309C125.287 32.806 125.806 37.8921 129.129 41.2179C132.452 44.5423 137.534 45.0606 141.407 42.7732L145.173 46.5415C142.84 50.3644 143.491 55.6974 146.729 58.8284C149.857 62.0678 155.19 62.7212 159.011 60.3881L162.759 64.1382L145.949 80.9579H76.1328V72.2346H71.0938V80.9579H60.7822V86H166.961V91.4308C162.606 92.5535 159.378 96.5152 159.378 101.217C159.378 105.92 162.606 109.884 166.961 111.007V116.83C162.606 117.953 159.378 121.916 159.378 126.62C159.378 131.321 162.606 135.283 166.961 136.406V141.738C162.606 142.861 159.378 146.822 159.378 151.524C159.378 156.228 162.606 160.191 166.961 161.314V166.957H146.465V172H172V156.591H169.48C162.804 156.415 162.806 146.637 169.48 146.463H172V131.682H169.48C162.801 131.506 162.809 121.728 169.48 121.554H172V106.283H169.48C162.804 106.107 162.806 96.3294 169.48 96.1551Z" fill="#E97704"/>
<path d="M90.7419 151.466C99.5525 151.651 104.241 140.33 97.8829 134.216C94.1241 130.296 87.36 130.295 83.6005 134.216C77.2443 140.33 81.9309 151.652 90.7419 151.466ZM87.1638 137.781C91.9986 133.176 98.9156 140.099 94.3196 144.941V144.941C89.4838 149.546 82.5685 142.623 87.1638 137.781Z" fill="#E97704"/>
<path d="M72.9765 123.583C79.3328 117.469 74.6461 106.147 65.8348 106.332C57.0252 106.148 52.3365 117.469 58.6941 123.583C62.4533 127.503 69.2174 127.504 72.9765 123.583ZM62.2571 112.858C67.0919 108.253 74.0089 115.176 69.4129 120.018V120.018C64.5771 124.622 57.6621 117.7 62.2571 112.858Z" fill="#E97704"/>
<path d="M56.8765 146.65L96.0776 107.449L99.6416 111.013L60.4405 150.214L56.8765 146.65Z" fill="#E97704"/>
<path d="M30.5476 101.268H40.6257V106.31H30.5476V101.268Z" fill="#E97704"/>
<path d="M10.3914 111.352H40.6261V116.394H10.3914V111.352Z" fill="#E97704"/>
<path d="M10.3914 121.436H40.6261V126.478H10.3914V121.436Z" fill="#E97704"/>
<path d="M10.3914 131.521H30.5479V136.564H10.3914V131.521Z" fill="#E97704"/>
<path d="M35.5867 131.521H40.6257V136.564H35.5867V131.521Z" fill="#E97704"/>
<path d="M10.3914 146.648H40.6261V151.691H10.3914V146.648Z" fill="#E97704"/>
<path d="M10.3914 101.268H15.4304V106.31H10.3914V101.268Z" fill="#E97704"/>
<path d="M20.4695 101.268H25.5085V106.31H20.4695V101.268Z" fill="#E97704"/>
<path d="M116.212 93.5996H121.251V98.6417H116.212V93.5996Z" fill="#E97704"/>
<path d="M116.212 103.684H121.251V108.726H116.212V103.684Z" fill="#E97704"/>
<path d="M116.212 113.768H121.251V118.81H116.212V113.768Z" fill="#E97704"/>
<path d="M116.212 123.852H121.251V128.894H116.212V123.852Z" fill="#E97704"/>
<path d="M116.212 133.938H121.251V138.98H116.212V133.938Z" fill="#E97704"/>
<path d="M116.212 144.021H121.251V149.064H116.212V144.021Z" fill="#E97704"/>
<path d="M116.212 154.107H121.251V159.15H116.212V154.107Z" fill="#E97704"/>
<path d="M131.275 106.143H136.314V131.27H131.275V106.143Z" fill="#E97704"/>
<path d="M131.372 136.459H136.411V146.48H131.372V136.459Z" fill="#E97704"/>
<path d="M141.426 106.145H146.465V146.482H141.426V106.145Z" fill="#E97704"/>
<path d="M75.489 48.1484L79.0531 44.5844L82.6169 48.1482L79.0528 51.7122L75.489 48.1484Z" fill="#E97704"/>
<path d="M82.6158 55.2812L86.1797 51.7174L89.7435 55.2812L86.1797 58.8451L82.6158 55.2812Z" fill="#E97704"/>
<path d="M89.7386 62.4043L93.3027 58.8403L96.8665 62.4041L93.3024 65.9681L89.7386 62.4043Z" fill="#E97704"/>
<path d="M96.8757 69.6055L100.44 66.0414L104.004 69.6052L100.44 73.1693L96.8757 69.6055Z" fill="#E97704"/>
<path d="M94.994 46.3594L98.5581 42.7953L116.318 60.5552L112.754 64.1193L94.994 46.3594Z" fill="#E97704"/>
<path d="M116.502 67.7871L120.066 64.2233L127.149 71.3063L123.585 74.8701L116.502 67.7871Z" fill="#E97704"/>
<path d="M102.166 39.1816L105.73 35.6176L134.241 64.1278L130.676 67.6918L102.166 39.1816Z" fill="#E97704"/>
</svg>
