<svg width="241" height="240" viewBox="0 0 241 240" fill="none" xmlns="http://www.w3.org/2000/svg">
<path d="M198.536 191.007C199.12 196.161 198.529 201.38 196.807 206.273C195.086 211.167 192.279 215.608 188.596 219.265C184.913 222.921 180.45 225.699 175.541 227.389C170.631 229.08 165.403 229.64 160.246 229.027H80.754C74.9213 229.197 69.1101 228.248 63.6353 226.231C61.5567 225.404 59.8924 223.786 59.0085 221.733C58.1245 219.68 58.0933 217.36 58.9218 215.284C59.7502 213.208 61.3705 211.546 63.426 210.663C65.4816 209.78 67.8041 209.749 69.8827 210.576C73.3748 211.785 77.0605 212.338 80.754 212.209H160.246C175.506 212.209 181.742 206.059 181.742 190.963C182.175 185.702 181.513 180.409 179.797 175.417C178.082 170.425 175.35 165.841 171.775 161.955C168.199 158.069 163.857 154.964 159.021 152.835C154.185 150.707 148.96 149.601 143.676 149.588C142.575 149.539 141.494 149.274 140.496 148.807C139.498 148.34 138.601 147.681 137.859 146.868C137.116 146.055 136.541 145.103 136.168 144.067C135.794 143.031 135.629 141.932 135.682 140.833C135.834 138.63 136.829 136.57 138.462 135.081C140.094 133.593 142.238 132.789 144.448 132.837C151.895 132.883 159.253 134.45 166.069 137.444C172.886 140.437 179.017 144.793 184.084 150.243C189.151 155.693 193.048 162.121 195.533 169.132C198.019 176.142 199.041 183.587 198.536 191.007ZM56.6826 195.558L14.4735 237.749C12.8817 239.231 10.7763 240.037 8.6009 239.999C6.4255 239.96 4.34992 239.08 2.81144 237.544C1.27296 236.007 0.391696 233.934 0.353313 231.761C0.314931 229.589 1.12243 227.486 2.60568 225.896L42.6763 185.875C42.9291 171.951 48.5786 158.669 58.4366 148.821C68.2946 138.973 81.5924 133.327 95.5328 133.072L112.17 116.466C104.725 114.954 97.8287 111.455 92.2154 106.341C86.6022 101.227 82.4815 94.6886 80.2915 87.4222C78.1015 80.1557 77.9241 72.4323 79.7781 65.0731C81.6321 57.714 85.4483 50.9943 90.8208 45.6284C96.1933 40.2624 102.921 36.451 110.29 34.5993C117.658 32.7475 125.391 32.9247 132.666 35.112C139.942 37.2993 146.488 41.4149 151.608 47.0213C156.728 52.6276 160.232 59.5151 161.746 66.9514L194.775 33.9638C193.301 32.0261 191.398 30.4562 189.214 29.3774C187.031 28.2986 184.626 27.7403 182.19 27.7464C178.255 27.6779 174.449 29.151 171.588 31.8503C170.807 32.6608 169.872 33.3062 168.836 33.7483C167.801 34.1903 166.688 34.42 165.562 34.4235C164.436 34.4271 163.321 34.2045 162.283 33.7689C161.245 33.3334 160.305 32.6939 159.52 31.8883C158.734 31.0828 158.119 30.1277 157.71 29.0799C157.302 28.0321 157.109 26.9129 157.142 25.7889C157.175 24.665 157.434 23.5592 157.904 22.5373C158.374 21.5154 159.045 20.5983 159.876 19.8406C165.863 14.077 173.876 10.8925 182.19 10.9731C186.829 10.9841 191.412 11.9878 195.63 13.9167C199.848 15.8456 203.603 18.6549 206.642 22.1553L226.527 2.2509C228.118 0.769471 230.224 -0.0370286 232.399 0.00130661C234.574 0.0396418 236.65 0.919818 238.189 2.4564C239.727 3.99299 240.608 6.06601 240.647 8.23874C240.685 10.4115 239.878 12.5142 238.394 14.1041L56.6826 195.558ZM130.017 98.6419L143.9 84.7759C145.12 81.7924 145.766 78.6056 145.803 75.3828C145.814 70.3908 144.341 65.5079 141.571 61.3526C138.802 57.1973 134.859 53.9566 130.243 52.0411C125.628 50.1257 120.547 49.6216 115.644 50.5928C110.742 51.564 106.238 53.9667 102.704 57.4966C99.1694 61.0265 96.7637 65.5246 95.7914 70.4213C94.819 75.3179 95.3237 80.3926 97.2415 85.0025C99.1593 89.6124 102.404 93.55 106.564 96.3165C110.725 99.083 115.614 100.554 120.612 100.543C123.839 100.506 127.029 99.861 130.017 98.6419ZM196.521 82.8749H194.058C191.831 82.8749 189.695 83.7585 188.12 85.3313C186.546 86.9041 185.661 89.0373 185.661 91.2616C185.661 93.4859 186.546 95.6191 188.12 97.1919C189.695 98.7647 191.831 99.6483 194.058 99.6483H196.521C200.234 99.303 203.977 99.7813 207.484 101.049C210.99 102.316 214.173 104.342 216.804 106.981C219.435 109.62 221.451 112.807 222.706 116.314C223.96 119.821 224.424 123.562 224.063 127.268C224.063 136.93 220.604 140.352 210.852 140.352H206.821C204.594 140.352 202.459 141.235 200.884 142.808C199.309 144.381 198.424 146.514 198.424 148.738C198.424 150.963 199.309 153.096 200.884 154.669C202.459 156.241 204.594 157.125 206.821 157.125H210.852C214.888 157.554 218.969 157.078 222.797 155.731C226.625 154.384 230.104 152.2 232.979 149.339C235.854 146.478 238.054 143.012 239.417 139.193C240.78 135.375 241.272 131.301 240.857 127.268C241.197 121.359 240.284 115.445 238.178 109.913C236.072 104.38 232.819 99.3545 228.634 95.1639C224.449 90.9734 219.425 87.7126 213.891 85.5949C208.358 83.4772 202.438 82.5504 196.521 82.8749ZM52.4505 75.6624C54.6344 76.1072 56.9059 75.6674 58.7651 74.4395C60.6244 73.2117 61.9191 71.2965 62.3646 69.1152C62.81 66.9339 62.3695 64.6652 61.1402 62.8083C59.9108 60.9513 57.9932 59.6581 55.8093 59.2133C51.9338 58.4336 48.4878 56.2407 46.1427 53.062C43.7976 49.8832 42.7215 45.9463 43.124 42.0184C43.5265 38.0904 45.3788 34.4529 48.32 31.8145C51.2611 29.1761 55.0805 27.7259 59.0337 27.7464C63.0075 27.7238 66.8385 29.2248 69.7371 31.9398C71.3555 33.4656 73.5144 34.2869 75.739 34.223C77.9636 34.159 80.0716 33.215 81.5994 31.5987C83.1271 29.9824 83.9494 27.8261 83.8854 25.6043C83.8213 23.3824 82.8762 21.277 81.2579 19.7511C75.2522 14.085 67.2952 10.9422 59.0337 10.9731C50.9227 10.9625 43.0969 13.9618 37.0749 19.3889C31.053 24.816 27.2644 32.2839 26.4441 40.3435C25.6239 48.403 27.8307 56.4796 32.6362 63.0058C37.4416 69.5321 44.5031 74.0427 52.4505 75.6624ZM30.1479 157.125H34.0666C36.2936 157.125 38.4294 156.241 40.0042 154.669C41.5789 153.096 42.4636 150.963 42.4636 148.738C42.4636 146.514 41.5789 144.381 40.0042 142.808C38.4294 141.235 36.2936 140.352 34.0666 140.352H30.1479C20.3962 140.352 16.9366 136.93 16.9366 127.268C16.5759 123.562 17.0395 119.821 18.2944 116.314C19.5494 112.807 21.5646 109.62 24.196 106.981C26.8274 104.342 30.01 102.316 33.5163 101.049C37.0226 99.7813 40.766 99.303 44.4789 99.6483H55.563C57.79 99.6483 59.9258 98.7647 61.5006 97.1919C63.0753 95.6191 63.96 93.4859 63.96 91.2616C63.96 89.0373 63.0753 86.9041 61.5006 85.3313C59.9258 83.7585 57.79 82.8749 55.563 82.8749H44.4789C38.5467 82.4885 32.6003 83.3728 27.0382 85.4686C21.4761 87.5645 16.4267 90.8234 12.2284 95.0272C8.03009 99.2309 4.77985 104.282 2.69545 109.843C0.61105 115.403 -0.259359 121.345 0.142547 127.268C-0.271955 131.301 0.220266 135.375 1.58328 139.193C2.9463 143.012 5.14573 146.478 8.02103 149.339C10.8963 152.2 14.375 154.384 18.203 155.731C22.0311 157.078 26.112 157.554 30.1479 157.125Z" fill="#E97704"/>
</svg>
