<svg width="222" height="222" viewBox="0 0 222 222" fill="none" xmlns="http://www.w3.org/2000/svg">
<path d="M111 222C140.649 222 168.523 210.454 189.488 189.489C210.453 168.524 222 140.649 222 111C222 81.3508 210.454 53.4766 189.489 32.5116C168.524 11.5465 140.649 0 111 0C81.3508 0 53.4761 11.546 32.5111 32.5111C11.546 53.4766 0 81.3508 0 111C0 140.649 11.546 168.523 32.5111 189.488C53.4761 210.454 81.3508 222 111 222ZM216.187 111C216.187 169 169.001 216.187 111 216.187C77.6402 216.187 47.8612 200.574 28.5771 176.274L44.3923 161.667L111 200.124L185.529 157.096V97.6059H179.716V153.739L160.81 164.654V88.665L179.716 77.7492V89.831H185.529V71.0391L159.062 55.7572L182.599 34.0191C203.247 53.2368 216.187 80.6334 216.187 111ZM42.2837 153.738V77.7497L94.2184 107.734L43.5921 154.493L42.2837 153.738ZM157.651 83.7758L139.852 73.4994L154.591 59.8869L176.808 72.7152L157.651 83.7758ZM139.337 177.052V101.062L154.996 92.0211V168.01L139.337 177.052ZM111 110.71L103.963 106.647L119.235 92.5418L130.852 99.249L111 110.71ZM113.906 115.744L133.524 104.418V180.408L113.906 191.734V115.744ZM136.665 95.8925L123.707 88.4117L135.38 77.6305L151.838 87.1328L136.665 95.8925ZM134.58 70.4558L91.8414 45.7807L111 34.7186L149.319 56.8433L134.58 70.4558ZM86.0284 49.1367L130.108 74.586L118.435 85.3671L70.8555 57.8974L86.0284 49.1367ZM65.043 61.2539L113.963 89.4978L98.691 103.603L45.1921 72.7157L65.043 61.2539ZM99.4908 110.778L108.094 115.744V191.734L48.8645 157.536L99.4908 110.778ZM111 5.81299C136.537 5.81299 159.975 14.9641 178.215 30.1544L153.79 52.7127L111 28.006L36.4712 71.0391V157.094L39.1209 158.623L25.0714 171.599C12.9465 154.457 5.81299 133.547 5.81299 111C5.81299 52.9999 52.9999 5.81299 111 5.81299ZM39.1456 50.8956L34.2991 46.875C37.4497 43.0767 40.9128 39.4818 44.5905 36.1897L48.7904 40.8823C45.3433 43.9675 42.0986 47.3361 39.1456 50.8956ZM24.6447 160.126C15.9712 145.083 11.3862 127.902 11.3862 110.439C11.3862 91.029 16.9725 72.2172 27.5405 56.0367L32.8129 59.48C22.9153 74.6339 17.6841 92.2546 17.6841 110.438C17.6841 126.798 21.9775 142.892 30.1006 156.98L24.6447 160.126ZM111 210.053C82.8637 210.053 55.9064 198.067 37.0399 177.169L41.7145 172.949C59.3884 192.527 84.6425 203.755 111 203.755C122.06 203.755 132.883 201.841 143.167 198.064L145.337 203.975C134.356 208.008 122.803 210.053 111 210.053ZM155.496 199.586L152.68 193.953C184.53 178.025 204.316 146.025 204.316 110.439C204.316 86.474 195.248 63.6963 178.781 46.3L183.354 41.9708C200.933 60.5413 210.613 84.857 210.613 110.438C210.613 129.293 205.32 147.648 195.307 163.52C185.565 178.962 171.798 191.433 155.496 199.586ZM57.5491 33.9372L53.9378 28.7782C70.716 17.033 90.4477 10.8248 111 10.8248C130.962 10.8248 150.222 16.7085 166.697 27.8394L163.172 33.0575C147.741 22.6324 129.7 17.1222 111 17.1222C91.7464 17.1222 73.2635 22.9371 57.5491 33.9372Z" fill="#E97704"/>
</svg>
