<svg width="222" height="222" viewBox="0 0 222 222" fill="none" xmlns="http://www.w3.org/2000/svg">
<path d="M189.429 32.6681C147.328 -10.1731 76.8151 -11.5828 32.6153 32.6178C-10.8246 76.0573 -10.9026 145.811 32.5663 189.332C74.6667 232.173 145.18 233.583 189.38 189.382C232.82 145.943 232.897 76.1895 189.429 32.6681ZM110.998 13.0288C135.673 13.0288 158.244 22.2025 175.488 37.3135L149.92 62.8814H54.6424C43.8859 62.8814 35.1348 71.6325 35.1348 82.389V139.611C35.1348 150.054 43.383 158.605 53.7069 159.095L37.311 175.491C22.2 158.247 13.0262 135.676 13.0262 111C13.0262 56.9784 56.9759 13.0288 110.998 13.0288ZM167.353 75.8865C170.938 75.8865 173.855 78.8035 173.855 82.389V90.6255H140.568L155.307 75.8865H167.353ZM54.6424 146.114C51.0569 146.114 48.1399 143.197 48.1399 139.611V103.631H109.171L94.4322 118.37H69.3814C65.7903 118.37 62.8789 121.281 62.8789 124.872C62.8789 128.463 65.7903 131.375 69.3814 131.375H81.4271L66.6881 146.114H54.6424ZM48.1399 90.6255V82.389C48.1399 78.8035 51.0569 75.8865 54.6424 75.8865H136.915L122.176 90.6255H48.1399ZM127.563 103.631H173.855V139.611C173.855 143.197 170.938 146.114 167.353 146.114H85.0798C110.056 121.138 61.7813 169.412 127.563 103.631ZM110.998 208.971C86.3218 208.971 63.7507 199.798 46.5069 184.687L72.0748 159.119H167.353C178.109 159.119 186.86 150.368 186.86 139.611V82.389C186.86 71.9464 178.612 63.3951 168.288 62.9053L184.684 46.5094C199.795 63.7536 208.969 86.3243 208.969 111C208.969 165.021 165.019 208.971 110.998 208.971Z" fill="#E97704"/>
</svg>
