<svg width="28" height="28" viewBox="0 0 28 28" fill="none" xmlns="http://www.w3.org/2000/svg">
<path d="M17.164 6.41277C18.3313 6.64058 19.404 7.2117 20.2448 8.05296C21.0855 8.89421 21.6559 9.9673 21.883 11.1348M17.164 1.63477C19.5887 1.90337 21.85 2.98864 23.5763 4.71229C25.3027 6.43594 26.3915 8.69549 26.664 11.1198M25.469 20.6528V24.2348C25.4703 24.5671 25.4022 24.896 25.2692 25.2005C25.1362 25.505 24.9411 25.7784 24.6964 26.0033C24.4517 26.2281 24.1628 26.3994 23.8481 26.5062C23.5335 26.6131 23.2 26.6531 22.869 26.6238C19.1932 26.2244 15.6623 24.9685 12.56 22.9568C9.6739 21.1228 7.22698 18.6759 5.39299 15.7898C3.37028 12.675 2.1099 9.1275 1.71399 5.43477C1.68473 5.10477 1.72442 4.77229 1.83055 4.45846C1.93668 4.14463 2.10691 3.8563 2.33045 3.61179C2.55399 3.36728 2.82594 3.17194 3.12902 3.03817C3.4321 2.9044 3.7597 2.83513 4.09099 2.83477H7.67499C8.25476 2.82908 8.81681 3.03442 9.25636 3.41252C9.69591 3.79062 9.98296 4.31566 10.064 4.88977C10.2152 6.03671 10.4956 7.16287 10.9 8.24677C11.0608 8.67443 11.0955 9.13923 11.0002 9.58605C10.9048 10.0329 10.6833 10.443 10.362 10.7678L8.84499 12.2848C10.5469 15.2733 13.0236 17.7472 16.014 19.4458L17.531 17.9288C17.8558 17.6074 18.2659 17.3859 18.7127 17.2906C19.1595 17.1952 19.6243 17.23 20.052 17.3908C21.1359 17.7951 22.262 18.0756 23.409 18.2268C23.9893 18.3085 24.5194 18.6008 24.8983 19.0479C25.2772 19.495 25.4786 20.0659 25.464 20.6518L25.469 20.6528Z" stroke="#FF9900" stroke-width="1.5" stroke-linecap="round" stroke-linejoin="round"/>
</svg>
