<svg width="63" height="44" viewBox="0 0 63 44" fill="none" xmlns="http://www.w3.org/2000/svg">
<path d="M41.9064 22.003C40.2429 22.003 38.6778 21.1191 37.8313 19.7049L31.5022 9.23553L25.1829 19.7049C24.3265 21.129 22.7615 22.0129 21.098 22.0129C20.6551 22.0129 20.2121 21.9539 19.7889 21.8263L6.30377 17.9764V35.458C6.30377 36.9018 7.28808 38.1589 8.68581 38.5026L29.9667 43.8159C30.9707 44.0614 32.0239 44.0614 33.018 43.8159L54.3186 38.5026C55.7163 38.149 56.7006 36.8919 56.7006 35.458V17.9764L43.2155 21.8164C42.7923 21.9441 42.3493 22.003 41.9064 22.003ZM62.8329 10.9837L57.7636 0.887535C57.4585 0.278623 56.799 -0.0749391 56.1198 0.0134513L31.5022 3.1464L40.5283 18.0844C40.9024 18.7031 41.6504 18.9978 42.3493 18.8013L61.8289 13.2524C62.8033 12.9676 63.2758 11.8872 62.8329 10.9837ZM5.24071 0.887535L0.171499 10.9837C-0.281285 11.8872 0.201029 12.9676 1.16566 13.2426L20.6452 18.7915C21.3441 18.9879 22.0921 18.6933 22.4662 18.0746L31.5022 3.1464L6.87467 0.0134513C6.1955 -0.065118 5.54585 0.278623 5.24071 0.887535Z" fill="white"/>
</svg>
