<svg width="41" height="33" viewBox="0 0 41 33" fill="none" xmlns="http://www.w3.org/2000/svg">
<path d="M3.46818 4.64226C6.33502 1.57424 10.6731 0.019043 16.3598 0.019043H18.4031V5.70528L16.7603 6.03004C13.9608 6.58272 12.0135 7.66995 10.9714 9.26548C10.4277 10.125 10.1193 11.1092 10.0764 12.1217H16.3598C16.9017 12.1217 17.4214 12.3342 17.8046 12.7125C18.1878 13.0908 18.4031 13.6039 18.4031 14.1388V28.2586C18.4031 30.4835 16.5702 32.2928 14.3164 32.2928H2.05621C1.51428 32.2928 0.994541 32.0803 0.611336 31.702C0.228131 31.3237 0.0128483 30.8107 0.0128483 30.2757V20.1902L0.0189785 14.3022C0.00058819 14.0783 -0.387651 8.77331 3.46818 4.64226ZM36.7934 32.2928H24.5332C23.9913 32.2928 23.4715 32.0803 23.0883 31.702C22.7051 31.3237 22.4898 30.8107 22.4898 30.2757V20.1902L22.496 14.3022C22.4776 14.0783 22.0893 8.77331 25.9452 4.64226C28.812 1.57424 33.1501 0.019043 38.8368 0.019043H40.8801V5.70528L39.2373 6.03004C36.4379 6.58272 34.4905 7.66995 33.4484 9.26548C32.9047 10.125 32.5963 11.1092 32.5534 12.1217H38.8368C39.3787 12.1217 39.8984 12.3342 40.2816 12.7125C40.6648 13.0908 40.8801 13.6039 40.8801 14.1388V28.2586C40.8801 30.4835 39.0472 32.2928 36.7934 32.2928Z" fill="white"/>
</svg>
