<svg width="36" height="34" viewBox="0 0 36 34" fill="none" xmlns="http://www.w3.org/2000/svg">
<path d="M5.0791 7.61865H30.4746C31.8217 7.61865 33.1136 8.15377 34.0661 9.10629C35.0186 10.0588 35.5537 11.3507 35.5537 12.6978V20.3164C35.5537 21.6635 35.0186 22.9554 34.0661 23.9079C33.1136 24.8604 31.8217 25.3955 30.4746 25.3955H5.0791C3.73204 25.3955 2.44015 24.8604 1.48763 23.9079C0.535118 22.9554 0 21.6635 0 20.3164V12.6978C0 11.3507 0.535118 10.0588 1.48763 9.10629C2.44015 8.15377 3.73204 7.61865 5.0791 7.61865ZM5.0791 10.1582C4.40557 10.1582 3.75963 10.4258 3.28337 10.902C2.80711 11.3783 2.53955 12.0242 2.53955 12.6978V20.3164C2.53955 20.9899 2.80711 21.6359 3.28337 22.1121C3.75963 22.5884 4.40557 22.856 5.0791 22.856H30.4746C31.1481 22.856 31.7941 22.5884 32.2703 22.1121C32.7466 21.6359 33.0142 20.9899 33.0142 20.3164V12.6978C33.0142 12.0242 32.7466 11.3783 32.2703 10.902C31.7941 10.4258 31.1481 10.1582 30.4746 10.1582H5.0791ZM0 1.26978C0 0.93301 0.133779 0.610038 0.371909 0.371909C0.610038 0.133779 0.93301 0 1.26978 0H34.2839C34.6207 0 34.9437 0.133779 35.1818 0.371909C35.4199 0.610038 35.5537 0.93301 35.5537 1.26978C35.5537 1.60654 35.4199 1.92951 35.1818 2.16764C34.9437 2.40577 34.6207 2.53955 34.2839 2.53955H1.26978C0.93301 2.53955 0.610038 2.40577 0.371909 2.16764C0.133779 1.92951 0 1.60654 0 1.26978ZM0 31.7444C0 31.4076 0.133779 31.0847 0.371909 30.8465C0.610038 30.6084 0.93301 30.4746 1.26978 30.4746H34.2839C34.6207 30.4746 34.9437 30.6084 35.1818 30.8465C35.4199 31.0847 35.5537 31.4076 35.5537 31.7444C35.5537 32.0812 35.4199 32.4041 35.1818 32.6423C34.9437 32.8804 34.6207 33.0142 34.2839 33.0142H1.26978C0.93301 33.0142 0.610038 32.8804 0.371909 32.6423C0.133779 32.4041 0 32.0812 0 31.7444Z" fill="#DED8CC"/>
</svg>
