<svg width="90" height="75" viewBox="0 0 90 75" fill="none" xmlns="http://www.w3.org/2000/svg">
<path d="M28.1502 42.9332C24.74 42.9399 21.4463 44.1742 18.8716 46.4102V19.4682H28.9999V42.9332H28.1502ZM22.29 62.3905C21.548 61.5701 20.9855 60.6039 20.6385 59.5535C20.2915 58.5032 20.1676 57.392 20.2748 56.2911C20.5228 54.3053 21.4937 52.4805 23.002 51.1653C24.5103 49.8501 26.4503 49.1366 28.4513 49.1612H87.7642C88.2512 49.1189 88.7046 48.8956 89.035 48.5353C89.3653 48.175 89.5486 47.704 89.5486 47.2152C89.5486 46.7264 89.3653 46.2553 89.035 45.895C88.7046 45.5348 88.2512 45.3114 87.7642 45.2691H28.1502C26.5328 45.2715 24.9329 45.6049 23.4492 46.2488C21.9655 46.8926 20.6292 47.8334 19.5227 49.0131C18.411 50.1924 17.5562 51.5897 17.0126 53.1166C16.469 54.6434 16.2484 56.2666 16.3648 57.8831C16.636 60.9255 18.0496 63.7523 20.3212 65.7943C22.5928 67.8363 25.5536 68.942 28.6076 68.8888H60.3924V64.9902H28.1502C27.0459 64.9878 25.9543 64.755 24.9452 64.3065C23.9361 63.858 23.0317 63.2038 22.29 62.3857V62.3905ZM16.5389 49.0424V15.4719C16.5385 15.1904 16.4266 14.9205 16.2277 14.7213C16.0288 14.5221 15.7591 14.4098 15.4776 14.4089H1.24884C0.967337 14.4098 0.697635 14.5221 0.498734 14.7213C0.299834 14.9205 0.187929 15.1904 0.1875 15.4719V67.8226C0.187931 68.1039 0.299888 68.3736 0.498834 68.5726C0.69778 68.7715 0.967486 68.8835 1.24884 68.8839H16.5357V65.0162C15.0763 62.9662 14.2116 60.5529 14.037 58.0426C13.8119 54.8406 14.6941 51.6585 16.5357 49.0294L16.5389 49.0424ZM72.7427 42.9397L66.4853 7.45325C66.4357 7.17608 66.2784 6.92981 66.0479 6.76818C65.8173 6.60654 65.5322 6.54267 65.2547 6.5905L51.2555 9.06153C51.1178 9.08551 50.9861 9.13644 50.8682 9.21142C50.7502 9.28639 50.6482 9.38393 50.5681 9.49842C50.4879 9.61292 50.4312 9.74212 50.4011 9.87862C50.371 10.0151 50.3681 10.1562 50.3927 10.2938L56.1503 42.9446L72.7427 42.9397ZM47.6743 1.46287C47.6738 1.18137 47.5619 0.911492 47.363 0.712287C47.1641 0.513082 46.8944 0.400763 46.6129 0.399902H32.3907C32.1092 0.400763 31.8394 0.513082 31.6406 0.712287C31.4417 0.911492 31.3297 1.18137 31.3293 1.46287V42.9397H47.6775L47.6743 1.46287ZM62.7251 74.0799H66.6172V58.2445H62.7283L62.7251 74.0799ZM87.7642 64.9902H68.9564V68.8888H87.7642C88.2512 68.8465 88.7046 68.6232 89.035 68.2629C89.3653 67.9026 89.5486 67.4315 89.5486 66.9427C89.5486 66.4539 89.3653 65.9829 89.035 65.6226C88.7046 65.2623 88.2512 65.039 87.7642 64.9967V64.9902ZM85.3062 62.6542V58.2428H68.9564V62.6542H85.3062ZM85.3062 51.4972H28.4481C27.0268 51.4701 25.6452 51.9668 24.5663 52.8925C23.4875 53.8183 22.7868 55.1084 22.5977 56.5174C22.5172 57.2943 22.602 58.0795 22.8467 58.8213C23.0913 59.5631 23.4902 60.2447 24.0172 60.8213C24.5405 61.3978 25.1785 61.8587 25.8901 62.1746C26.6018 62.4905 27.3716 62.6544 28.1502 62.6559H60.3924V58.2445H55.4634C55.1536 58.2445 54.8565 58.1214 54.6375 57.9024C54.4185 57.6834 54.2954 57.3863 54.2954 57.0765C54.2954 56.7667 54.4185 56.4697 54.6375 56.2506C54.8565 56.0316 55.1536 55.9086 55.4634 55.9086H85.3062V51.4972Z" fill="#E97704"/>
</svg>
