<svg width="55" height="44" viewBox="0 0 55 44" fill="none" xmlns="http://www.w3.org/2000/svg">
<path d="M53.625 30.25H52.25V20.9602C52.25 19.8687 51.8117 18.8203 51.0383 18.0469L42.4531 9.46172C41.6797 8.68828 40.6313 8.25 39.5398 8.25H35.75V4.125C35.75 1.84766 33.9023 0 31.625 0H4.125C1.84766 0 0 1.84766 0 4.125V31.625C0 33.9023 1.84766 35.75 4.125 35.75H5.5C5.5 40.3047 9.19531 44 13.75 44C18.3047 44 22 40.3047 22 35.75H33C33 40.3047 36.6953 44 41.25 44C45.8047 44 49.5 40.3047 49.5 35.75H53.625C54.3813 35.75 55 35.1313 55 34.375V31.625C55 30.8687 54.3813 30.25 53.625 30.25ZM13.75 39.875C11.4727 39.875 9.625 38.0273 9.625 35.75C9.625 33.4727 11.4727 31.625 13.75 31.625C16.0273 31.625 17.875 33.4727 17.875 35.75C17.875 38.0273 16.0273 39.875 13.75 39.875ZM41.25 39.875C38.9727 39.875 37.125 38.0273 37.125 35.75C37.125 33.4727 38.9727 31.625 41.25 31.625C43.5273 31.625 45.375 33.4727 45.375 35.75C45.375 38.0273 43.5273 39.875 41.25 39.875ZM48.125 22H35.75V12.375H39.5398L48.125 20.9602V22Z" fill="white"/>
</svg>
